<?xml version="1.0" encoding="utf-8"?>
<svg xmlns="http://www.w3.org/2000/svg" viewBox="0 0 425.38 305.44"><defs><style>.cls-1{fill:#e8edf0;}.cls-2{fill:#fff;}.cls-3{fill:#12365c;}.cls-4{fill:#f53361;}</style></defs><title>Architecture</title><g id="Layer_2" data-name="Layer 2"><g id="Layer_2-2" data-name="Layer 2"><path class="cls-1" d="M73.79,160.72a53.49,53.49,0,0,0-5,106.74v38h10v-38a53.49,53.49,0,0,0-5-106.74Z"/><polygon class="cls-1" points="425.38 234.95 384.22 218.03 384.22 194.79 353.11 194.79 353.11 205.25 326.7 194.39 289.03 209.61 289.03 20 143.94 20 143.94 305.44 240.49 305.44 279.03 305.44 289.03 305.44 314.93 305.44 412.87 305.44 412.87 240.62 421.58 244.2 425.38 234.95"/><rect class="cls-2" x="128.64" y="5" width="135.09" height="275.44"/><path class="cls-3" d="M268.73,285.44H123.64V0H268.73Zm-135.09-10H258.73V10H133.64Z"/><circle class="cls-2" cx="53.49" cy="194.21" r="48.49"/><path class="cls-3" d="M53.49,247.7A53.49,53.49,0,1,1,107,194.21,53.56,53.56,0,0,1,53.49,247.7Zm0-97A43.49,43.49,0,1,0,97,194.21,43.54,43.54,0,0,0,53.49,150.72Z"/><rect class="cls-3" x="48.49" y="170.79" width="10" height="114.65"/><rect class="cls-3" x="48.51" y="195.82" width="33.97" height="10" transform="translate(-122.82 105.15) rotate(-45)"/><rect class="cls-3" x="36.48" y="183.83" width="10" height="33.97" transform="translate(-129.85 88.15) rotate(-45)"/><rect class="cls-2" x="154.94" y="37.67" width="29.5" height="25.03"/><path class="cls-3" d="M189.44,67.7h-39.5v-35h39.5Zm-29.5-10h19.5v-15h-19.5Z"/><rect class="cls-3" x="207.94" y="37.67" width="29.5" height="25.03"/><path class="cls-3" d="M242.44,67.7h-39.5v-35h39.5Zm-29.5-10h19.5v-15h-19.5Z"/><rect class="cls-3" x="154.94" y="85.38" width="29.5" height="25.03"/><path class="cls-3" d="M189.44,115.4h-39.5v-35h39.5Zm-29.5-10h19.5v-15h-19.5Z"/><rect class="cls-2" x="207.94" y="85.38" width="29.5" height="25.03"/><path class="cls-3" d="M242.44,115.4h-39.5v-35h39.5Zm-29.5-10h19.5v-15h-19.5Z"/><rect class="cls-2" x="154.94" y="133.08" width="29.5" height="25.03"/><path class="cls-3" d="M189.44,163.11h-39.5v-35h39.5Zm-29.5-10h19.5v-15h-19.5Z"/><rect class="cls-2" x="154.94" y="180.79" width="29.5" height="25.03"/><path class="cls-3" d="M189.44,210.82h-39.5v-35h39.5Zm-29.5-10h19.5v-15h-19.5Z"/><rect class="cls-2" x="207.94" y="133.08" width="29.5" height="25.03"/><path class="cls-3" d="M242.44,163.11h-39.5v-35h39.5Zm-29.5-10h19.5v-15h-19.5Z"/><polygon class="cls-4" points="358.92 201.38 358.92 179.79 337.81 179.79 337.81 192.71 306.38 179.79 225.19 212.6 225.19 280.44 387.56 280.44 387.56 213.16 358.92 201.38"/><path class="cls-3" d="M392.57,285.44H220.19V209.23l86.21-34.84,26.41,10.86V174.79h31.11V198l28.65,11.78Zm-162.38-10H382.57V216.51l-28.65-11.77v-20H342.81v15.38l-36.45-15L230.19,216Z"/><polygon class="cls-3" points="209.81 224.21 206.06 214.94 306.4 174.39 332.81 185.25 332.81 174.79 363.92 174.79 363.92 198.03 405.08 214.95 401.28 224.2 353.92 204.74 353.92 184.79 342.81 184.79 342.81 200.17 306.36 185.19 209.81 224.21"/><rect class="cls-2" x="263.73" y="228.11" width="25.89" height="52.33"/><path class="cls-3" d="M294.62,285.44H258.73V223.11h35.89Zm-25.89-10h15.89V233.11H268.73Z"/><rect class="cls-2" x="316.7" y="228.11" width="42.23" height="26.16"/><path class="cls-3" d="M363.92,259.28H311.7V223.11h52.22Zm-42.22-10h32.22V233.11H321.7Z"/></g></g></svg>