<svg xmlns="http://www.w3.org/2000/svg" viewBox="0 0 1650.4 321.88"><defs><style>.cls-1{fill:none;stroke:#f53362;stroke-linecap:round;stroke-linejoin:round;stroke-width:4px;}</style></defs><title>Asset 1</title><g id="Layer_2" data-name="Layer 2"><g id="Layer_1-2" data-name="Layer 1"><path class="cls-1" d="M1648.4,290.38c-18.05,19.82-143.93,49.32-233.65,10.47,0,0-93.89-38.4-193-11.35-40.65,11.1-80.46-4.34-80.24-33s14.85-157.61,12.31-161.79-20.23,21.89-5.15,18.58a117.08,117.08,0,0,1,25.87-3c-3.3-28.4-11.65-31.54-11.45-16.73.07,5.28,0,28.11,0,28.11,38.2,11.3,39.91,47.63,35.89,45.1-41-25.83-66.66,1.32-75.74-4.79-6.28-9.41,25.26-36,20.8-40s-39.63,26.42-36.16,67.21c62.26-18.5,102.22,8.42,102.22,8.42,15.19-6.61-11.23-27.58-59.12-26.92s-66.39,20-50.54,26.56l-4.17,65.86,10.49-1.78,2-40.05,12.26-1.72L1119.83,260l13.44-.82,1.5-41,17-.73-.49,42.51,15.78.65,1-42.93,14.74,2.64-.54,40.88,12.58,1.84,1.72-40,11.3,3.76-1.72,38.58,11.6,3.13,1.65-37c14.42-10.57-5.4-30.38-64.74-31.37s-79.59,18.6-65.72,29.39l-3.3,39.63s-5.62,1.33-7.6,4-1.65,17.17-1.65,17.17-21.17,22.61-85,1.47c-54.48-21.36-129.78,21.24-149.53.82-12.53-12.95-1.65-86,4.46-84s8.42,72.82,12.71,73.32-.82-28.08-.49-70.35,9.41-74.48,9.41-74.48c-24.77,2.31-43.27-4.13-43.27-4.13,16.52,93.47,22,45.09,23.62,22.63s2.14-59.29,2-117.08-8.42-41.29-8.42,10.07,33.52,27.74,24.6,20.48-38.17-10.7-44.92,0c-18,28.49,130.24,34.7,62.1,11.89-38.48-12.89-83.73-6.78-86.87,3.13s15.82,20.65,49.22,26.43,63.74,1.81,63.74-6.28-24.28-18-62.92-18-68,3.8-70,16.18c-2,12.74,46.24,21,68.2,23.12,84.15,8.23,52.35-20.31.5-23.12-50.79-2.75-72.66,20.15-28.73,29.07,14.2,59.45,13.54,152.58,8.25,158.53s-70.41-14.26-110.37,4.57c-38.79,11.73-80.49-2.82-114.35-4.8s-49.89,3.79-69,6.6c-13.19,1.94-14.64-21.43-14.26-36.16.17-6.67.06-67.21.06-67.21l-9.42.49v95.62c0,9.08-4.95,8.75-14.53,6.44a73.9,73.9,0,0,0-17.17-2.15l1.84-177.81c92.82-8.41,80.47-16.74,4.22-16.74-55.49,0-31.83,8,6.12,8,0-54.34,7.14-62.39,7.14-7.17,0,19.84-1.32,43.1-1.32,43.1L509.05,137l.66-47.22H469.58S467,147.58,467,159.53c0,21.47-28.4,18.88-28.4,3.61,0-6,5.62-11.76,13.36-14.9C465,143,516.15,122,523.09,122s44.46,18.08,68.2,29.23c19,8.91,9.58,21.3-1.83,26.45-12.58,5.67-62.08,28.7-70.83,28.54s-52-19.93-52-19.93L465,294.12c-25.76-3-70.91,13.72-137.14-4.18-38.26-10.34-69.58-12.33-177,13.65S2,286.42,2,286.42"/></g></g></svg>