<?xml version="1.0" encoding="UTF-8"?>
<svg width="19px" height="19px" viewBox="0 0 19 19" version="1.1" xmlns="http://www.w3.org/2000/svg" xmlns:xlink="http://www.w3.org/1999/xlink">
    <!-- Generator: Sketch 58 (84663) - https://sketch.com -->
    <title>Facebook</title>
    <desc>Created with Sketch.</desc>
    <g id="Symbols" stroke="none" stroke-width="1" fill="none" fill-rule="evenodd">
        <g id="Content-Block/Desktop/Footer" transform="translate(-823.000000, -392.000000)" fill="#688096">
            <g id="Group-4" transform="translate(823.000000, 392.000000)">
                <path d="M17.9514315,19 L13.1096946,19 L13.1096946,11.6421061 L15.5794721,11.6421061 L15.9495247,8.77492373 L13.1096946,8.77492373 L13.1096946,6.94386032 C13.1096946,6.11372303 13.3405246,5.54804968 14.5309035,5.54804968 L16.049413,5.54753214 L16.049413,2.98259425 C15.7864945,2.94791894 14.8854294,2.8697701 13.8368609,2.8697701 C11.6475988,2.8697701 10.1487565,4.20606341 10.1487565,6.66024733 L10.1487565,8.77492373 L7.67276838,8.77492373 L7.67276838,11.6421061 L10.1487565,11.6421061 L10.1487565,19 L1.04856855,19 C0.469423334,19 0,18.5300719 0,17.9509425 L0,1.04905753 C0,0.469410547 0.469423334,0 1.04856855,0 L17.9514315,0 C18.5305767,0 19,0.469410547 19,1.04905753 L19,17.9509425 C19,18.5300719 18.5305767,19 17.9514315,19 Z" id="Facebook"></path>
            </g>
        </g>
    </g>
</svg>