<svg xmlns="http://www.w3.org/2000/svg" viewBox="0 0 1438.7 242.11">
  <g data-name="Layer 2">
    <path d="M1436.7 207.64c-21.8-9.9-27.74-3.3-66.72 14.54s-48.88-7.27-74.64-13.88c-31.9-8.18-53.23 11.88-86.48 13.86s-51.4-15.68-83-19.37c-37.65-4.41-49.54 19.81-83.23 21.14-52.44 2-44.69-64.52-31-97.33 7.84-18.84-13-41.61-1.1-68.91s29.39-29.84 41.06-31.82 6.77-17 24.28-22.62c20.3-6.51 48.27 14.36 53.78 19.21s16.07 9 20.47 14.31 7.27 15 8.37 32.15 15.78 21.34 18.27 45.13c2.43 23.12-9.24 33.47-15.63 69.14s29.05 53 18.06 52.18c-69-5.35-49.76-75.08-35-92.91s12.71-29.46 6.81-38.81c-6.1-9.54-21 6.28-17.58 10.9 2.55 3.41 8.6 4.34 10 8.92.81 2.68-3.12 13-6.94 11.56-15-5.83-6.21 4.66-7.6 13.35-.63 4-4.43 20.65-6.41 31.71-1.16 6.51-10.37 5.94-20.56 8.17-7.13 1.55-14.21 7-21.66 6.46-18.08-1.24-18.93-33.6-15-38.06s18.6 4.72 20.18-3.71c2.72-14.46-6.37-22.93-10.88-26.75-6.27-5.29-12.55-2.51-19.39-7.93-2.27 1.32-6.4 1.9-8.63-.11-3.3 2.86-9.19 5.25-9.19 5.25 27.3 11.89 42.16-6.93 46.35-7.37s3.08 13.87 8.58 13.43-.88-10.35 3.75-21.36 28.4-6.61 14.53-29.95c-2.64-3.3-8.37 19.38-25.32 20.92s-20.92-23.34-26.64-24-7.71 20.26-25.54 20.92-11-30.61-11-30.61c12.55-5.5 33 2.43 37.87 2.65s12.55-2.87 24.44-4.85 22.68 5.07 25.76 6.17 4.84-1.1 5.72.44 17.72 28.2 17.72 28.2c-6.83-37.21-11.89-66.72-47.12-69.36s-48 30.39-49.54 34.13.66 10.13.44 17.18-8.37 10.12-10.13 26.42 9.47 46.9 11 48.22 11 4.07 11 4.07c15.19 42.28-.66 52.08-18.83 51.82s-36-16.15-75.26-9.11-87.8 37.46-133.89 13.37c-45.76-23.92-110.86 25.8-136.92 20.68-11.53-2.26-4.57-15.21 2.65-21.62 4.36-3.86 8.21-8.48 6.82-13.84-3.52-13.65-45.8 4.4-92.91 22s-81.47-3.09-93.36-26.87-52.41-52.84-113.84 4.63-162.86 44.85-208.44 16.06S76 164.52 2 173.77" fill="none" stroke="#f53362" stroke-linecap="round" stroke-linejoin="round" stroke-width="4" data-name="Layer 1"/>
  </g>
</svg>
