<svg xmlns="http://www.w3.org/2000/svg" viewBox="0 0 552.5 237.27">
  <g data-name="Layer 2">
    <path d="M550.5 222.14c-39 17.8-48.9-7.3-74.6-13.9-31.9-8.2-53.2 11.9-86.5 13.9s-51.4-15.7-83-19.4c-37.7-4.4-49.5 19.8-83.2 21.1-52.4 2.1-44.7-64.5-31-97.3 7.8-18.8-13-41.6-1.1-68.9s29.4-29.8 41.1-31.8 6.8-17 24.3-22.6c20.3-6.5 48.3 14.4 53.8 19.2s16.1 9 20.5 14.3 7.3 15 8.4 32.1 15.8 21.3 18.3 45.1c2.4 23.1-9.2 33.5-15.6 69.1s29.1 53 18.1 52.2c-69-5.4-49.8-75.1-35-92.9s12.8-29.5 6.8-38.8c-6.1-9.5-21.1 6.3-17.6 10.9 2.6 3.4 8.6 4.3 10 8.9.8 2.7-3.1 13-6.9 11.6-15-5.8-6.2 4.7-7.6 13.3-.6 4-4.4 20.7-6.4 31.7-1.2 6.5-10.4 5.9-20.6 8.2-7.1 1.6-14.2 7-21.7 6.5-18.1-1.2-18.9-33.6-15.1-38.1s18.6 4.7 20.2-3.7c2.7-14.5-6.4-22.9-10.9-26.7-6.3-5.3-12.5-2.5-19.4-7.9-2.3 1.3-6.4 1.9-8.6-.1-3.3 2.9-9.2 5.3-9.2 5.3 27.3 11.9 42.2-6.9 46.3-7.4s3.1 13.9 8.6 13.4-.9-10.3 3.7-21.4 28.4-6.6 14.5-29.9c-2.6-3.3-8.4 19.4-25.3 20.9s-20.9-23.3-26.6-24-7.7 20.3-25.5 20.9-11-30.6-11-30.6c12.6-5.5 33 2.4 37.9 2.6s12.6-2.9 24.4-4.8 22.7 5.1 25.8 6.2 4.8-1.1 5.7.4 17.8 28.2 17.8 28.2c-6.8-37.2-11.9-66.7-47.1-69.4s-48 30.4-49.5 34.1.7 10.1.4 17.2-8.4 10.1-10.1 26.4 9.5 46.9 11 48.2 11 4.1 11 4.1c15.2 42.3-.7 52.1-18.8 51.8s-36-16.2-75.3-9.1-87.8 37.5-133.9 13.4" fill="none" stroke="#f53362" stroke-linecap="round" stroke-linejoin="round" stroke-width="4" data-name="Layer 1"/>
  </g>
</svg>
