<?xml version="1.0" encoding="utf-8"?>
<svg xmlns="http://www.w3.org/2000/svg" viewBox="0 0 323.82 263.02"><defs><style>.cls-1{fill:#e8edf0;}.cls-2{fill:#fff;}.cls-3{fill:#12365c;}.cls-4{fill:#f53361;}</style></defs><title>Innovations</title><g id="Layer_2" data-name="Layer 2"><g id="Layer_2-2" data-name="Layer 2"><path class="cls-1" d="M243.22,89.84C240,54.3,210.77,25.64,175.13,23.18a75.78,75.78,0,0,0-10.44,0C129.06,25.64,99.78,54.3,96.6,89.84a73.35,73.35,0,0,0,23.25,60.74,46.67,46.67,0,0,1,15,34.07v11.43a4.79,4.79,0,0,0,4.79,4.78h5.2v41.62h9.51a15.54,15.54,0,0,0,31.08,0H195V200.86h5.2a4.78,4.78,0,0,0,4.78-4.78V184.65a46.69,46.69,0,0,1,15-34.07A73.35,73.35,0,0,0,243.22,89.84Z"/><path class="cls-1" d="M169.91,263A20.58,20.58,0,0,1,150,247.48H139.86V205.86h-.2a9.79,9.79,0,0,1-9.78-9.78V184.65a41.71,41.71,0,0,0-13.43-30.41A78.27,78.27,0,0,1,91.62,89.39c3.4-38,34.67-68.57,72.73-71.2a82.53,82.53,0,0,1,11.12,0c38.06,2.63,69.33,33.24,72.73,71.2a78.29,78.29,0,0,1-24.83,64.85,41.67,41.67,0,0,0-13.43,30.41v11.43a9.79,9.79,0,0,1-9.78,9.78H200v41.62H189.84A20.58,20.58,0,0,1,169.91,263Zm-20-25.54h9.51v5a10.54,10.54,0,0,0,21.08,0v-5H190V195.86h10V184.65a51.71,51.71,0,0,1,16.63-37.74,68.37,68.37,0,0,0,21.67-56.62h0c-3-33.12-30.25-59.83-63.46-62.12a68.83,68.83,0,0,0-9.74,0c-33.21,2.29-60.5,29-63.46,62.12a68.35,68.35,0,0,0,21.67,56.62,51.71,51.71,0,0,1,16.63,37.74v11.21h10Z"/><path class="cls-1" d="M318.82,155.46s-41.17-.4-66.33,24.75-24.75,66.33-24.75,66.33,41.17.39,66.32-24.76S318.82,155.46,318.82,155.46Z"/><path class="cls-1" d="M227.94,251.54h-.25l-4.9,0,0-4.9c0-1.77-.11-43.58,26.22-69.91s68.16-26.21,69.91-26.22l4.9,0,.05,4.9c0,1.77.11,43.58-26.22,69.91C272,250.9,231.83,251.54,227.94,251.54Zm85.64-90.85c-11.45.86-39.31,4.82-57.55,23.06s-22.2,46.1-23.06,57.55c11.46-.85,39.32-4.81,57.56-23.05S312.73,172.15,313.58,160.69Z"/><path class="cls-1" d="M21,155.46s-.39,41.17,24.76,66.32,66.32,24.76,66.32,24.76.4-41.18-24.75-66.33S21,155.46,21,155.46Z"/><path class="cls-1" d="M111.88,251.54c-3.89,0-44.08-.64-69.66-26.22C15.89,199,16,157.18,16,155.41l.05-4.9,4.9,0c1.75,0,43.58-.11,69.91,26.22s26.24,68.14,26.22,69.91l0,4.9-4.9,0ZM26.24,160.69c.85,11.45,4.8,39.31,23.05,57.56s46.12,22.22,57.56,23.06C106,229.86,102,202,83.79,183.75S37.68,161.53,26.24,160.69Z"/><path class="cls-2" d="M169.45,224.48a15.54,15.54,0,1,1-31.08,0"/><path class="cls-3" d="M153.91,245a20.56,20.56,0,0,1-20.54-20.54h10a10.54,10.54,0,1,0,21.08,0h10A20.56,20.56,0,0,1,153.91,245Z"/><rect class="cls-2" x="128.86" y="182.86" width="50.09" height="41.62"/><path class="cls-3" d="M184,229.48h-60.1V177.86H184Zm-50.1-10H174V187.86h-40.1Z"/><path class="cls-4" d="M123.66,182.86a4.79,4.79,0,0,1-4.79-4.78V166.65a46.67,46.67,0,0,0-15-34.07A73.35,73.35,0,0,1,80.6,71.84c3.18-35.54,32.46-64.2,68.09-66.66a75.78,75.78,0,0,1,10.44,0C194.77,7.64,224,36.3,227.22,71.84A73.35,73.35,0,0,1,204,132.58a46.69,46.69,0,0,0-15,34.07v11.43a4.78,4.78,0,0,1-4.78,4.78Z"/><path class="cls-3" d="M184.16,187.86h-60.5a9.79,9.79,0,0,1-9.78-9.78V166.65a41.71,41.71,0,0,0-13.43-30.41A78.27,78.27,0,0,1,75.62,71.39c3.4-38,34.67-68.57,72.73-71.2a80.92,80.92,0,0,1,11.12,0c38.06,2.63,69.33,33.24,72.73,71.2a78.29,78.29,0,0,1-24.83,64.85,41.67,41.67,0,0,0-13.43,30.41v11.43A9.79,9.79,0,0,1,184.16,187.86Zm-60.28-10h60.06V166.65a51.71,51.71,0,0,1,16.63-37.74,68.37,68.37,0,0,0,21.67-56.62c-3-33.12-30.25-59.83-63.46-62.12a68.83,68.83,0,0,0-9.74,0c-33.21,2.29-60.5,29-63.46,62.12a68.35,68.35,0,0,0,21.67,56.62,51.71,51.71,0,0,1,16.63,37.74Z"/><rect class="cls-3" x="127.33" y="208.3" width="53.17" height="10" transform="translate(-62.59 63.92) rotate(-19.58)"/><rect class="cls-3" x="127.33" y="189.76" width="53.17" height="10" transform="translate(-56.37 62.85) rotate(-19.58)"/><path class="cls-2" d="M199.29,71.14l-7.38-.8a7.7,7.7,0,0,1-6.19-4.78v-.1a7.39,7.39,0,0,1,1-7.68l4.69-5.69a2.17,2.17,0,0,0-.2-3l-7.58-7.58a2.27,2.27,0,0,0-3-.2L175,45.91a7.6,7.6,0,0,1-7.78,1h-.1a7.7,7.7,0,0,1-4.78-6.19l-.8-7.38a2.25,2.25,0,0,0-2.19-2H148.52a2.25,2.25,0,0,0-2.19,2l-.8,7.38a7.7,7.7,0,0,1-4.78,6.19h-.1a7.6,7.6,0,0,1-7.78-1l-5.69-4.59a2.17,2.17,0,0,0-3,.2l-7.58,7.58a2.27,2.27,0,0,0-.2,3l4.69,5.69a7.42,7.42,0,0,1,1,7.68v.1a7.7,7.7,0,0,1-6.19,4.78l-7.38.8a2.25,2.25,0,0,0-2,2.19V84.11a2.25,2.25,0,0,0,2,2.19l7.38.8a7.7,7.7,0,0,1,6.19,4.78V92a7.39,7.39,0,0,1-1,7.68l-4.69,5.69a2.17,2.17,0,0,0,.2,3l7.58,7.58a2.27,2.27,0,0,0,3,.2l5.69-4.69a7.42,7.42,0,0,1,7.68-1h.1a7.7,7.7,0,0,1,4.78,6.19l.8,7.38a2.25,2.25,0,0,0,2.19,2H159.2a2.25,2.25,0,0,0,2.19-2l.8-7.38a7.69,7.69,0,0,1,4.79-6.19h.09a7.39,7.39,0,0,1,7.68,1l5.69,4.69a2.17,2.17,0,0,0,3-.2l7.58-7.58a2.27,2.27,0,0,0,.2-3l-4.49-5.69a7.42,7.42,0,0,1-1-7.68v-.1a7.7,7.7,0,0,1,6.19-4.78l7.38-.8a2.25,2.25,0,0,0,2-2.19V73.33A2.25,2.25,0,0,0,199.29,71.14Zm-45.38,24a16.46,16.46,0,1,1,16.46-16.46A16.47,16.47,0,0,1,153.91,95.18Z"/><path class="cls-3" d="M159.2,131H148.42a7.25,7.25,0,0,1-7.17-6.54l-.79-7.29a2.56,2.56,0,0,0-1.4-1.94l-.46-.18a2.47,2.47,0,0,0-2.57.26l-5.78,4.77a7.28,7.28,0,0,1-9.6-.61l-7.5-7.51a7.23,7.23,0,0,1-.69-9.67l.09-.11,4.69-5.69a2.43,2.43,0,0,0,.25-2.55l-.24-.57a2.56,2.56,0,0,0-1.87-1.29l-7.38-.8a7.22,7.22,0,0,1-6.46-7.16V73.33a7.24,7.24,0,0,1,6.54-7.17l7.3-.79a2.6,2.6,0,0,0,1.94-1.4l.17-.46a2.47,2.47,0,0,0-.26-2.57l-4.77-5.78a7.28,7.28,0,0,1,.62-9.6l7.5-7.5a7.23,7.23,0,0,1,9.67-.69L136,42a2.6,2.6,0,0,0,2.69.28l.57-.24a2.56,2.56,0,0,0,1.29-1.87l.8-7.39a7.22,7.22,0,0,1,7.16-6.45H159.3a7.24,7.24,0,0,1,7.17,6.54l.79,7.29a2.6,2.6,0,0,0,1.4,2l.46.17a2.6,2.6,0,0,0,2.67-.26l5.71-4.61a7.31,7.31,0,0,1,9.67.55l7.5,7.51a7.23,7.23,0,0,1,.69,9.67l-.09.11L190.58,61a2.43,2.43,0,0,0-.25,2.55l.24.57a2.56,2.56,0,0,0,1.87,1.29l7.36.8a7.24,7.24,0,0,1,6.48,7.16V84.11a7.24,7.24,0,0,1-6.54,7.17l-7.29.79a2.57,2.57,0,0,0-1.88,1.28l-.24.58a2.47,2.47,0,0,0,.26,2.57l4.54,5.75a7.28,7.28,0,0,1-.58,9.63l-7.51,7.5a7.22,7.22,0,0,1-9.67.69l-.11-.09-5.69-4.69A2.41,2.41,0,0,0,169,115l-.58.24a2.57,2.57,0,0,0-1.28,1.87l-.8,7.39A7.23,7.23,0,0,1,159.2,131Zm-2.78-7.55s0,.07,0,.11Zm-5.23-.08v.1A.38.38,0,0,0,151.19,123.36Zm-.26-2.37h5.76l.53-4.91A12.7,12.7,0,0,1,165,105.83l.93-.4h.22A12.2,12.2,0,0,1,178,107.64l3.64,3,4.11-4.11-3-3.76a12.36,12.36,0,0,1-2.08-11.66v-.23l.4-.93a12.7,12.7,0,0,1,10.26-7.81l4.9-.53V75.84l-4.91-.53a12.7,12.7,0,0,1-10.25-7.81l-.4-.93v-.22a12.22,12.22,0,0,1,2.2-11.83l3-3.64-4.09-4.09-3.74,3a12.5,12.5,0,0,1-11.81,2.11h-.12l-1-.4a12.7,12.7,0,0,1-7.81-10.25l-.53-4.91H151l-.53,4.91a12.7,12.7,0,0,1-7.81,10.25l-.93.4h-.22a12.53,12.53,0,0,1-11.84-2.13l-3.71-3-4.09,4.09L125,54.6a12.42,12.42,0,0,1,2.14,11.75v.12l-.4,1a12.73,12.73,0,0,1-10.26,7.81l-4.9.53V81.6l4.91.53a12.7,12.7,0,0,1,10.25,7.8l.4.94v.22a12.2,12.2,0,0,1-2.21,11.83l-3,3.64,4.07,4.07,3.72-3.06a12.42,12.42,0,0,1,11.75-2.14h.12l1,.4a12.71,12.71,0,0,1,7.81,10.26Zm47.82-39.66h0Zm-89.77,0h0Zm.19-5.22h0Zm47.35-42.22a.28.28,0,0,0,0,.09Zm-5.21-.09v.11S151.31,33.83,151.31,33.79Zm2.6,66.39a21.46,21.46,0,1,1,21.46-21.46A21.49,21.49,0,0,1,153.91,100.18Zm0-32.92a11.46,11.46,0,1,0,11.46,11.46A11.47,11.47,0,0,0,153.91,67.26Z"/><path class="cls-2" d="M302.82,137.46s.4,41.17-24.76,66.32-66.32,24.76-66.32,24.76-.4-41.18,24.75-66.33S302.82,137.46,302.82,137.46Z"/><path class="cls-3" d="M211.94,233.54h-.25l-4.9,0,0-4.9c0-1.77-.11-43.58,26.22-69.91s68.16-26.2,69.91-26.22l4.9,0,.05,4.9c0,1.77.11,43.58-26.22,69.91C256,232.9,215.83,233.54,211.94,233.54Zm85.64-90.85c-11.45.86-39.31,4.82-57.55,23.06s-22.2,46.1-23.06,57.55c11.46-.85,39.32-4.81,57.56-23.05S296.73,154.15,297.58,142.69Z"/><rect class="cls-3" x="198.77" y="192.23" width="88.56" height="10" transform="translate(-68.27 229.63) rotate(-45)"/><rect class="cls-3" x="240.37" y="154.76" width="10" height="40.14"/><path class="cls-2" d="M5,137.46s-.39,41.17,24.76,66.32,66.32,24.76,66.32,24.76.4-41.18-24.75-66.33S5,137.46,5,137.46Z"/><path class="cls-3" d="M95.88,233.54c-3.89,0-44.08-.64-69.66-26.22C-.11,181,0,139.18,0,137.41l.05-4.9,4.9,0c1.76,0,43.58-.11,69.91,26.22s26.24,68.14,26.22,69.91l0,4.9-4.9,0ZM10.24,142.69c.85,11.45,4.8,39.31,23,57.56s46.12,22.22,57.56,23.06C90,211.86,86,184,67.79,165.75S21.68,143.53,10.24,142.69Z"/><rect class="cls-3" x="59.77" y="152.95" width="10" height="88.56" transform="translate(-120.49 103.57) rotate(-45)"/></g></g></svg>