<?xml version="1.0" encoding="UTF-8"?>
<svg width="19px" height="19px" viewBox="0 0 19 19" version="1.1" xmlns="http://www.w3.org/2000/svg" xmlns:xlink="http://www.w3.org/1999/xlink">
    <!-- Generator: Sketch 58 (84663) - https://sketch.com -->
    <title>Instagram</title>
    <desc>Created with Sketch.</desc>
    <g id="Symbols" stroke="none" stroke-width="1" fill="none" fill-rule="evenodd">
        <g id="Content-Block/Desktop/Footer" transform="translate(-914.000000, -392.000000)" fill="#688096" fill-rule="nonzero">
            <g id="Group-4" transform="translate(823.000000, 392.000000)">
                <path d="M100.5,0 C97.9191667,0 97.5969583,0.011875 96.583625,0.057 C95.571875,0.1045 94.883125,0.263625 94.2775,0.49875 C93.652875,0.741 93.1224583,1.066375 92.5944167,1.59441667 C92.066375,2.12245833 91.7402083,2.65208333 91.49875,3.2775 C91.263625,3.883125 91.1037083,4.571875 91.057,5.583625 C91.0095,6.59695833 91,6.91916667 91,9.5 C91,12.0808333 91.011875,12.4030417 91.057,13.416375 C91.1045,14.4273333 91.263625,15.116875 91.49875,15.7225 C91.741,16.3463333 92.066375,16.8775417 92.5944167,17.4055833 C93.1224583,17.9328333 93.6520833,18.2597917 94.2775,18.50125 C94.8839167,18.7355833 95.5726667,18.8962917 96.583625,18.943 C97.5969583,18.9905 97.9191667,19 100.5,19 C103.080833,19 103.403042,18.988125 104.416375,18.943 C105.427333,18.8955 106.116875,18.7355833 106.7225,18.50125 C107.346333,18.259 107.877542,17.9328333 108.405583,17.4055833 C108.932833,16.8775417 109.259792,16.3487083 109.50125,15.7225 C109.735583,15.116875 109.896292,14.4273333 109.943,13.416375 C109.9905,12.4030417 110,12.0808333 110,9.5 C110,6.91916667 109.988125,6.59695833 109.943,5.583625 C109.8955,4.57266667 109.735583,3.88233333 109.50125,3.2775 C109.259,2.652875 108.932833,2.12245833 108.405583,1.59441667 C107.877542,1.066375 107.348708,0.740208333 106.7225,0.49875 C106.116875,0.263625 105.427333,0.103708333 104.416375,0.057 C103.403042,0.0095 103.080833,0 100.5,0 Z M100.5,1.71 C103.035708,1.71 103.338125,1.72266667 104.339583,1.76620833 C105.265833,1.80975 105.768542,1.96333333 106.102625,2.09475 C106.547542,2.26654167 106.862625,2.472375 107.196708,2.80408333 C107.528417,3.13658333 107.73425,3.45245833 107.906042,3.897375 C108.035875,4.23145833 108.191042,4.73416667 108.233,5.66041667 C108.278125,6.66266667 108.288417,6.9635 108.288417,9.5 C108.288417,12.0365 108.276542,12.338125 108.229833,13.3395833 C108.181542,14.2658333 108.027167,14.7685417 107.896542,15.102625 C107.719208,15.5475417 107.517333,15.862625 107.184833,16.1967083 C106.853125,16.5284167 106.5325,16.73425 106.092333,16.9060417 C105.759833,17.035875 105.249208,17.1910417 104.322958,17.233 C103.314375,17.278125 103.0175,17.2884167 100.47625,17.2884167 C97.9342083,17.2884167 97.6373333,17.2765417 96.6295417,17.2298333 C95.7025,17.1815417 95.191875,17.0271667 94.859375,16.8965417 C94.4089167,16.7192083 94.099375,16.5173333 93.7676667,16.1848333 C93.434375,15.853125 93.2214167,15.5325 93.0551667,15.0923333 C92.9245417,14.7598333 92.7709583,14.2492083 92.7226667,13.3229583 C92.6870417,12.3254583 92.674375,12.0175 92.674375,9.488125 C92.674375,6.95795833 92.6870417,6.64920833 92.7226667,5.63983333 C92.7709583,4.71358333 92.9245417,4.20375 93.0551667,3.87125 C93.2214167,3.42 93.434375,3.11125 93.7676667,2.77795833 C94.099375,2.44625 94.4089167,2.2325 94.859375,2.06704167 C95.191875,1.935625 95.6914167,1.78125 96.6176667,1.73375 C97.6270417,1.698125 97.9239167,1.68625 100.464375,1.68625 L100.5,1.71 L100.5,1.71 Z M100.5,4.62175 C97.804375,4.62175 95.62175,6.80675 95.62175,9.5 C95.62175,12.195625 97.80675,14.37825 100.5,14.37825 C103.195625,14.37825 105.37825,12.19325 105.37825,9.5 C105.37825,6.804375 103.19325,4.62175 100.5,4.62175 Z M100.5,12.6666667 C98.7504167,12.6666667 97.3333333,11.2495833 97.3333333,9.5 C97.3333333,7.75041667 98.7504167,6.33333333 100.5,6.33333333 C102.249583,6.33333333 103.666667,7.75041667 103.666667,9.5 C103.666667,11.2495833 102.249583,12.6666667 100.5,12.6666667 Z M106.711417,4.429375 C106.711417,5.05875 106.2,5.569375 105.571417,5.569375 C104.942042,5.569375 104.431417,5.05795833 104.431417,4.429375 C104.431417,3.80079167 104.942833,3.29016575 105.571417,3.29016575 C106.199208,3.289375 106.711417,3.80079167 106.711417,4.429375 Z" id="Instagram"></path>
            </g>
        </g>
    </g>
</svg>