<?xml version="1.0" encoding="UTF-8"?>
<svg width="16px" height="16px" viewBox="0 0 16 16" version="1.1" xmlns="http://www.w3.org/2000/svg" xmlns:xlink="http://www.w3.org/1999/xlink">
    <!-- Generator: Sketch 58 (84663) - https://sketch.com -->
    <title>Group 2</title>
    <desc>Created with Sketch.</desc>
    <g id="Symbols" stroke="none" stroke-width="1" fill="none" fill-rule="evenodd">
        <g id="Content-Block/Desktop/Footer" transform="translate(-959.000000, -394.000000)" fill="#688096" fill-rule="nonzero">
            <g id="Group-4" transform="translate(823.000000, 392.000000)">
                <g id="Group-2" transform="translate(136.000000, 2.000000)">
                    <path d="M15.5374762,15.5139524 L12.3219524,15.5139524 L12.3219524,10.4753333 C12.3219524,9.27380952 12.2975238,7.72757143 10.6463333,7.72757143 C8.96980952,7.72757143 8.7137619,9.03495238 8.7137619,10.3866667 L8.7137619,15.5139524 L5.4982381,15.5139524 L5.4982381,5.15261905 L8.58709524,5.15261905 L8.58709524,6.56495238 L8.62871429,6.56495238 C9.06028571,5.75066667 10.1098095,4.89114286 11.6777619,4.89114286 C14.9358095,4.89114286 15.538381,7.03542857 15.538381,9.82661905 L15.538381,15.5139524 L15.5374762,15.5139524 Z" id="Path"></path>
                    <path d="M1.86652381,3.73485714 C0.83147619,3.73485714 1.61426428e-13,2.89704762 1.61426428e-13,1.86652381 C1.61426428e-13,0.836904762 0.832380952,1.46549439e-14 1.86652381,1.46549439e-14 C2.89795238,1.46549439e-14 3.73395238,0.836904762 3.73395238,1.86652381 C3.73395238,2.89704762 2.89704762,3.73485714 1.86652381,3.73485714 Z" id="Path"></path>
                    <polygon id="Path" points="3.47880952 15.5139524 0.254238095 15.5139524 0.254238095 5.15261905 3.47880952 5.15261905"></polygon>
                </g>
            </g>
        </g>
    </g>
</svg>