<?xml version="1.0" encoding="utf-8"?>
<svg xmlns="http://www.w3.org/2000/svg" viewBox="0 0 388.56 342.37"><defs><style>.cls-1{fill:#e8edf0;}.cls-2{fill:#fff;}.cls-3{fill:#12365c;}.cls-4{fill:#f53361;}</style></defs><title>Master Planning</title><g id="Layer_2" data-name="Layer 2"><g id="Layer_2-2" data-name="Layer 2"><path class="cls-1" d="M356.87,48.64a26.7,26.7,0,0,0-26.7,26.69H204.28V24.93h-139v50.4H25V286.84H217.39l-50.53,50.53H288.4V286.84h68.47a26.69,26.69,0,0,0,26.69-26.69V75.33A26.69,26.69,0,0,0,356.87,48.64Z"/><path class="cls-1" d="M293.4,342.37H154.78l50.54-50.53H20V70.33H60.29V19.93h149v50.4H325.57a31.69,31.69,0,0,1,63,5V260.15a31.73,31.73,0,0,1-31.69,31.69H293.4Zm-114.47-10H283.4V281.84h73.47a21.71,21.71,0,0,0,21.69-21.69V75.33a21.7,21.7,0,0,0-43.39,0v5H199.28V29.93h-129v50.4H30V281.84H229.46Z"/><path class="cls-2" d="M363.56,240.21a26.69,26.69,0,0,1-26.69,26.7H5V55.4H363.56"/><path class="cls-3" d="M336.87,271.91H0V50.4H363.56v10H10V261.91H336.87a21.72,21.72,0,0,0,21.69-21.7h10A31.73,31.73,0,0,1,336.87,271.91Z"/><path class="cls-2" d="M363.56,240.21a26.7,26.7,0,0,0-53.39,0V55.4a26.7,26.7,0,1,1,53.39,0Z"/><path class="cls-3" d="M368.56,240.21h-10a21.7,21.7,0,0,0-43.39,0h-10V55.4a31.7,31.7,0,1,1,63.39,0Zm-31.69-31.69a31.55,31.55,0,0,1,21.69,8.61V55.4a21.7,21.7,0,1,0-43.39,0V217.13A31.58,31.58,0,0,1,336.87,208.52Z"/><polygon class="cls-2" points="268.4 317.44 146.85 317.44 268.4 195.9 268.4 317.44"/><path class="cls-3" d="M273.4,322.44H134.78L273.4,183.83Zm-114.47-10H263.4V208Z"/><polygon class="cls-2" points="242.63 291.68 210.3 291.68 242.63 259.35 242.63 291.68"/><path class="cls-3" d="M247.63,296.68h-49.4l49.4-49.4Zm-25.25-10h15.25V271.42Z"/><rect class="cls-4" x="45.29" y="5" width="138.99" height="204.77"/><path class="cls-3" d="M189.28,214.77h-149V0h149Zm-139-10h129V10h-129Z"/><circle class="cls-2" cx="114.79" cy="107.38" r="36.59"/><path class="cls-3" d="M114.79,149a41.6,41.6,0,1,1,41.59-41.6A41.64,41.64,0,0,1,114.79,149Zm0-73.19a31.6,31.6,0,1,0,31.59,31.59A31.62,31.62,0,0,0,114.79,75.79Z"/><rect class="cls-3" x="109.79" y="35.04" width="10" height="144.69"/><rect class="cls-3" x="78.2" y="102.38" width="73.18" height="10"/><path class="cls-3" d="M151.38,107.38H114.79V70.79A36.59,36.59,0,0,1,151.38,107.38Z"/><path class="cls-3" d="M156.38,112.38H109.79V65.79h5a41.64,41.64,0,0,1,41.59,41.59Zm-36.59-10H146a31.66,31.66,0,0,0-26.19-26.19Z"/><path class="cls-3" d="M78.19,107.38h36.6V144A36.6,36.6,0,0,1,78.19,107.38Z"/><path class="cls-3" d="M119.79,149h-5a41.64,41.64,0,0,1-41.59-41.6v-5h46.59Zm-36.2-36.6a31.66,31.66,0,0,0,26.2,26.2v-26.2Z"/><rect class="cls-3" x="223.38" y="92.48" width="47.56" height="10"/><rect class="cls-3" x="223.38" y="115.38" width="47.56" height="10"/><rect class="cls-3" x="223.38" y="138.27" width="47.56" height="10"/></g></g></svg>