<?xml version="1.0" encoding="utf-8"?>
<svg xmlns="http://www.w3.org/2000/svg" viewBox="0 0 236.74 328.14"><defs><style>.cls-1{fill:#e8edf0;}.cls-2{fill:#fff;}.cls-3{fill:#12365c;}.cls-4{fill:#f53361;}</style></defs><title>Project Mangement</title><g id="Layer_2" data-name="Layer 2"><g id="Layer_2-2" data-name="Layer 2"><path class="cls-1" d="M206.93,54.61H176.18l-4.13-12.77H145.21a16.84,16.84,0,0,0-33.68,0H84.69L80.55,54.61H25V323.14H231.74V54.61Z"/><path class="cls-1" d="M236.74,328.14H20V49.61H76.92l4.13-12.77H107.1a21.85,21.85,0,0,1,42.53,0h26.06l4.13,12.77h56.92ZM30,318.14H226.74V59.61H172.55l-4.14-12.77h-28.2v-5a11.84,11.84,0,0,0-23.68,0v5H88.32L84.19,59.61H30Z"/><rect class="cls-2" x="5" y="34.61" width="206.74" height="268.53"/><path class="cls-3" d="M216.74,308.14H0V29.61H216.74ZM10,298.14H206.74V39.61H10Z"/><rect class="cls-2" x="29.81" y="34.61" width="157.13" height="243.96"/><path class="cls-3" d="M191.93,283.57H24.81v-254H191.93Zm-157.12-10H181.93v-234H34.81Z"/><path class="cls-4" d="M152.05,21.84H125.21a16.84,16.84,0,1,0-33.68,0H64.69L55.42,50.46h105.9Z"/><path class="cls-3" d="M168.19,55.46H48.54L61.05,16.84H87.11a21.84,21.84,0,0,1,42.52,0h26.06Zm-105.9-10h92.15l-6-18.62h-28.2v-5a11.84,11.84,0,1,0-23.68,0v5H68.33Z"/><rect class="cls-4" x="57.46" y="101.27" width="22.02" height="22.02"/><path class="cls-3" d="M84.48,128.28h-32v-32h32Zm-22-10h12v-12h-12Z"/><rect class="cls-4" x="57.46" y="143.06" width="22.02" height="22.02"/><path class="cls-3" d="M84.48,170.08h-32v-32h32Zm-22-10h12v-12h-12Z"/><rect class="cls-4" x="57.46" y="184.86" width="22.02" height="22.02"/><path class="cls-3" d="M84.48,211.88h-32v-32h32Zm-22-10h12v-12h-12Z"/><rect class="cls-4" x="57.46" y="226.66" width="22.02" height="22.02"/><path class="cls-3" d="M84.48,253.67h-32v-32h32Zm-22-10h12v-12h-12Z"/><rect class="cls-3" x="102.31" y="107.28" width="55.93" height="10"/><rect class="cls-3" x="102.31" y="149.07" width="55.93" height="10"/><rect class="cls-3" x="102.31" y="190.87" width="55.93" height="10"/><rect class="cls-3" x="102.31" y="232.67" width="55.93" height="10"/></g></g></svg>