<?xml version="1.0" encoding="UTF-8"?>
<svg width="16px" height="16px" viewBox="0 0 16 16" version="1.1" xmlns="http://www.w3.org/2000/svg" xmlns:xlink="http://www.w3.org/1999/xlink">
    <!-- Generator: Sketch 58 (84663) - https://sketch.com -->
    <title>Group</title>
    <desc>Created with Sketch.</desc>
    <g id="Symbols" stroke="none" stroke-width="1" fill="none" fill-rule="evenodd">
        <g id="Content-Block/Desktop/Footer" transform="translate(-868.000000, -394.000000)" fill="#688096">
            <g id="Group-4" transform="translate(823.000000, 392.000000)">
                <g id="Group" transform="translate(45.000000, 2.000000)">
                    <path d="M15.9318617,2.81192368 C16.0512538,2.07840134 16.0486695,1.32407889 15.6348029,0.753561519 C15.0576121,-0.0464645781 13.8288043,-0.0758960298 12.986987,0.0653183397 C12.3022916,0.179931205 9.98603408,1.29903386 9.19783979,3.97814495 C10.5942358,3.86197562 11.3260936,4.0883714 11.1917129,5.77190704 C11.1353764,6.47628092 10.810537,7.24814904 10.4478384,7.98789726 C10.0288033,8.84070188 9.24345169,10.5154647 8.2135014,9.30835066 C7.28575796,8.2217924 7.35540332,6.14404511 7.14336613,4.76034238 C7.0252662,3.98394634 6.90031802,3.01652887 6.66799453,2.21805924 C6.46784486,1.53137253 6.00875399,0.703471452 5.44758549,0.524052795 C4.84468146,0.330059908 4.0992564,0.632864268 3.66148553,0.915293007 C2.26780296,1.8122448 1.20567885,3.08840953 0,4.14129141 L0,4.23977358 C0.23891332,4.48979942 0.303260985,4.90000028 0.65510575,4.95589174 C1.48503558,5.08974825 2.27594333,4.10888852 2.82767934,5.12936751 C3.16337258,5.75294639 3.26829287,6.43652016 3.48304351,7.10877414 C3.77028219,8.00402796 3.99188107,8.9789448 4.22678882,10.0083381 C4.62437469,11.7522931 5.11318437,14.3578256 6.48942329,14.9959787 C7.19169149,15.3225546 8.24722578,14.8857523 8.78151815,14.5386592 C10.2290822,13.6006732 11.3569753,12.2406005 12.3224487,10.8567563 C14.5299096,7.58208282 15.7477344,3.87230492 15.9318617,2.81192368" id="Fill-1"></path>
                </g>
            </g>
        </g>
    </g>
</svg>