<?xml version="1.0" encoding="UTF-8"?>
<svg width="137px" height="47px" viewBox="0 0 137 47" version="1.1" xmlns="http://www.w3.org/2000/svg" xmlns:xlink="http://www.w3.org/1999/xlink">
    <!-- Generator: Sketch 58 (84663) - https://sketch.com -->
    <title>Knit Logo-Horizontal</title>
    <desc>Created with Sketch.</desc>
    <defs>
        <polygon id="path-1" points="2.38024458e-06 0.00301839993 35.4753188 0.00301839993 35.4753188 46.5043028 2.38024458e-06 46.5043028"></polygon>
    </defs>
    <g id="Symbols" stroke="none" stroke-width="1" fill="none" fill-rule="evenodd">
        <g id="Desktop-Nav" transform="translate(-42.000000, -34.000000)">
            <g id="Knit-Logo-Horizontal" transform="translate(42.000000, 34.000000)">
                <g id="Knit-Logo-Horizontal-with-Tagline-A-RGB">
                    <g id="Group-4">
                        <mask id="mask-2" fill="white">
                            <use xlink:href="#path-1"></use>
                        </mask>
                        <g id="Clip-2"></g>
                        <g id="Group" mask="url(#mask-2)" fill="#F53362">
                            <g transform="translate(0.000002, 0.003003)">
                                <path d="M6.19960627,25.153512 C6.17946307,28.1247879 5.94852467,41.5565444 6.03494947,42.8720124 C6.12137427,44.1874803 6.22806547,46.5118947 7.94473422,46.5050261 C9.66146458,46.4980347 9.73729418,43.21765 9.66503738,41.76851 C9.59265738,40.3194316 9.52970218,29.8169399 9.52970218,29.8169399 C9.52970218,29.8169399 9.27258379,14.8641563 9.27258379,11.7731299 C9.27258379,8.68216523 9.60707178,2.85917897 9.16250459,1.37979341 C8.717999,-0.0995921566 8.00159102,-0.235666553 7.46283743,0.255839835 C6.92414545,0.747407822 6.18038707,1.99973579 6.15543907,3.79180295 C6.15543907,3.79180295 6.21993427,22.1567337 6.19960627,25.153512 Z" id="Fill-1"></path>
                                <path d="M25.8988546,19.269665 C23.5879306,21.3202673 13.2873637,32.7016062 7.01636065,32.9916806 C4.6639183,33.1005278 3.35565754,32.384551 3.09447354,30.9472999 C2.78092955,29.2223767 5.13706789,26.654396 9.50358378,28.2727511 C12.2928317,29.3065839 16.7235348,32.1905726 21.6261555,35.183655 C29.7439881,40.1395596 35.1535767,40.5577004 35.4264647,39.6738021 C35.7193727,38.7250389 34.6886816,37.7903205 32.5074256,36.7157701 C30.2767665,35.6169494 16.9334676,29.1353975 13.0388077,27.1482432 C9.14414779,25.1610888 5.09973829,25.0782368 2.81721195,26.2480208 C0.234693614,27.5716816 -0.762610361,31.0237455 0.630412004,33.5889542 C3.88714232,39.5860837 14.1833973,37.1975437 27.7317009,22.0207209 C29.4883481,20.0529705 29.3088457,16.243873 25.8988546,19.269665 Z" id="Fill-3"></path>
                                <path d="M15.8311972,28.5793959 L19.2807971,30.2425959 L16.6935972,32.2137958 C14.5170639,30.8996625 13.4287973,30.2425959 13.4287973,30.2425959 C13.4287973,30.2425959 14.2295973,29.6881959 15.8311972,28.5793959 Z" id="Path"></path>
                            </g>
                        </g>
                    </g>
                    <polygon id="Fill-5" fill="#12365C" points="63.8588704 18.146066 69.4915743 18.146066 60.4788785 28.4729361 70.1174303 40.0514566 64.2032144 40.0514566 57.4747082 31.6332624 56.473277 32.7601728 56.473277 40.0514566 51.7480643 40.0514566 51.7480643 18.146066 56.473277 18.146066 56.473277 26.8142329"></polygon>
                    <polyline id="Fill-6" fill="#12365C" points="95.9321416 18.146066 95.9321416 40.0514566 91.2382217 40.0514566 80.942398 25.5937522 80.942398 40.0514566 76.3735261 40.0514566 76.3735261 18.146066 81.161694 18.146066 91.3632697 32.6661096 91.3632697 18.146066 95.9321416 18.146066"></polyline>
                    <polygon id="Fill-7" fill="#12365C" points="106.584629 40.0514566 111.309965 40.0514566 111.309965 18.146066 106.584629 18.146066"></polygon>
                    <polygon id="Fill-8" fill="#12365C" points="136.593685 18.146066 136.593685 22.5269346 130.835933 22.5269346 130.835933 40.0514566 126.109981 40.0514566 126.109981 22.5269346 120.320813 22.5269346 120.320813 18.146066"></polygon>
                </g>
            </g>
        </g>
    </g>
</svg>