<?xml version="1.0" encoding="UTF-8"?>
<svg viewBox="0 0 137 47" version="1.1" xmlns="http://www.w3.org/2000/svg" xmlns:xlink="http://www.w3.org/1999/xlink">
    <defs>
        <polygon id="path-1" points="2.38024458e-06 0.00301839993 35.4753188 0.00301839993 35.4753188 46.5043028 2.38024458e-06 46.5043028"></polygon>
    </defs>
    <g id="*Navigation" stroke="none" stroke-width="1" fill="none" fill-rule="evenodd">
        <g id="Navigation/Desktop-HD/1440" transform="translate(-41.000000, -33.000000)">
            <g id="Knit-Logo-Horizontal-Light-Blue" transform="translate(41.000000, 33.000000)">
                <g id="Knit-Logo-Horizontal-with-Tagline-A-RGB">
                    <g id="Group-4">
                        <mask id="mask-2" fill="white">
                            <use xlink:href="#path-1"></use>
                        </mask>
                        <g id="Clip-2"></g>
                        <path d="M6.19960865,25.1565154 C6.17946545,28.1277913 5.94852705,41.5595478 6.03495185,42.8750157 C6.12137665,44.1904837 6.22806785,46.514898 7.9447366,46.5080294 C9.66146696,46.501038 9.73729656,43.2206533 9.66503976,41.7715134 C9.59265976,40.322435 9.52970456,29.8199433 9.52970456,29.8199433 C9.52970456,29.8199433 9.27258617,14.8671596 9.27258617,11.7761333 C9.27258617,8.68516858 9.60707416,2.86218233 9.16250697,1.38279677 C8.71800138,-0.0965887976 8.0015934,-0.232663194 7.46283982,0.258843194 C6.92414783,0.750411181 6.18038945,2.00273915 6.15544145,3.79480631 C6.15544145,3.79480631 6.21993665,22.1597371 6.19960865,25.1565154 Z" id="Fill-1" fill="#FFFFFF" mask="url(#mask-2)"></path>
                        <path d="M25.898857,19.2726683 C23.587933,21.3232707 13.2873661,32.7046096 7.01636303,32.994684 C4.66392068,33.1035312 3.35565992,32.3875544 3.09447592,30.9503032 C2.78093193,29.2253801 5.13707027,26.6573993 9.50358616,28.2757545 C12.2928341,29.3095873 16.7235372,32.193576 21.6261579,35.1866583 C29.7439905,40.142563 35.1535791,40.5607038 35.4264671,39.6768054 C35.7193751,38.7280422 34.6886839,37.7933239 32.507428,36.7187735 C30.2767689,35.6199527 16.93347,29.1384009 13.0388101,27.1512465 C9.14415017,25.1640922 5.09974067,25.0812402 2.81721433,26.2510241 C0.234695994,27.5746849 -0.762607981,31.0267488 0.630414384,33.5919576 C3.8871447,39.589087 14.1833996,37.2005471 27.7317033,22.0237243 C29.4883505,20.0559739 29.3088481,16.2468764 25.898857,19.2726683 Z" id="Fill-3" fill="#FFFFFF" mask="url(#mask-2)"></path>
                        <path d="M15.8311996,28.5823993 L19.2807995,30.2455993 L16.6935996,32.2167992 C14.5170663,30.9026659 13.4287997,30.2455993 13.4287997,30.2455993 C13.4287997,30.2455993 14.2295996,29.6911993 15.8311996,28.5823993 Z" id="Path" fill="#FFFFFF" mask="url(#mask-2)"></path>
                    </g>
                    <polygon id="Fill-5" fill="#FFFFFF" points="63.8588704 18.146066 69.4915743 18.146066 60.4788785 28.4729361 70.1174303 40.0514566 64.2032144 40.0514566 57.4747082 31.6332624 56.473277 32.7601728 56.473277 40.0514566 51.7480643 40.0514566 51.7480643 18.146066 56.473277 18.146066 56.473277 26.8142329"></polygon>
                    <polyline id="Fill-6" fill="#FFFFFF" points="95.9321416 18.146066 95.9321416 40.0514566 91.2382217 40.0514566 80.942398 25.5937522 80.942398 40.0514566 76.3735261 40.0514566 76.3735261 18.146066 81.161694 18.146066 91.3632697 32.6661096 91.3632697 18.146066 95.9321416 18.146066"></polyline>
                    <polygon id="Fill-7" fill="#FFFFFF" points="106.584629 40.0514566 111.309965 40.0514566 111.309965 18.146066 106.584629 18.146066"></polygon>
                    <polygon id="Fill-8" fill="#FFFFFF" points="136.593685 18.146066 136.593685 22.5269346 130.835933 22.5269346 130.835933 40.0514566 126.109981 40.0514566 126.109981 22.5269346 120.320813 22.5269346 120.320813 18.146066"></polygon>
                </g>
            </g>
        </g>
    </g>
</svg>