<?xml version="1.0" encoding="UTF-8"?>
<svg width="38px" height="38px" viewBox="0 0 38 38" version="1.1" xmlns="http://www.w3.org/2000/svg" xmlns:xlink="http://www.w3.org/1999/xlink">
    <!-- Generator: Sketch 58 (84663) - https://sketch.com -->
    <title>Icon</title>
    <desc>Created with Sketch.</desc>
    <g id="*--Projects-Category" stroke="none" stroke-width="1" fill="none" fill-rule="evenodd">
        <g id="Project/Live/Desktop/HD" transform="translate(-1012.000000, -544.000000)">
            <g id="Icon" transform="translate(1031.000000, 563.000000) scale(-1, 1) translate(-1031.000000, -563.000000) translate(1012.000000, 544.000000)">
                <path d="M19,36.75 C28.8030543,36.75 36.75,28.8030543 36.75,19 C36.75,9.19694569 28.8030543,1.25 19,1.25 C9.19694569,1.25 1.25,9.19694569 1.25,19 C1.25,28.8030543 9.19694569,36.75 19,36.75 Z" id="Circle" stroke="#F53362" stroke-width="2.5"></path>
                <path d="M15.1840287,19.4958824 C14.9386571,19.222 14.9386571,18.778 15.1840287,18.5041176 L20.0200924,13.1027059 C20.1426203,12.9657647 20.3415703,12.9657647 20.4640982,13.1027059 L20.9081041,13.5985882 C21.030632,13.7355294 20.9081041,23.9055294 20.9081041,23.9055294 C21.030632,24.0424706 21.030632,24.2644706 20.9081041,24.4014118 L20.4640982,24.8972941 C20.3415703,25.0342353 20.1426203,25.0342353 20.0200924,24.8972941 L15.1840287,19.4958824 Z" fill="#F53362"></path>
            </g>
        </g>
    </g>
</svg>