<svg xmlns="http://www.w3.org/2000/svg" viewBox="0 0 413.96 302.71"><defs><style>.cls-1{fill:none;stroke:#ee3764;stroke-linecap:round;stroke-linejoin:round;stroke-width:4px;}</style></defs><title>Asset 1</title><g id="Layer_2" data-name="Layer 2"><g id="Layer_1-2" data-name="Layer 1"><path class="cls-1" d="M2,294.94c68.26-30.83,187.5,1,192.78-4.95s5.94-99.08-8.26-158.53c-43.93-8.92-22.05-31.81,28.73-29.06,51.85,2.81,83.65,31.34-.5,23.12-22-2.15-70.24-10.38-68.2-23.12,2-12.39,31.38-16.18,70-16.18s62.92,9.91,62.92,18-30.35,12.06-63.74,6.28S163.4,94,166.54,84.08s48.39-16,86.86-3.14c68.14,22.81-80.07,16.61-62.09-11.89,6.75-10.7,36-7.27,44.92,0s-24.61,30.88-24.61-20.48S219.88-19.3,220,38.5s-.33,94.62-2,117.08S211,226.42,194.45,133c0,0,18.5,6.44,43.27,4.13,0,0-9.08,32.2-9.41,74.48s4.79,70.84.5,70.35-6.61-71.34-12.72-73.32-16.35,70.51-4.46,84,58.62,6.94,85.54,2.31S393,289.35,412,297.11"/></g></g></svg>