<svg xmlns="http://www.w3.org/2000/svg" viewBox="0 0 433.8 219.78"><defs><style>.cls-1{fill:none;stroke:#ee3764;stroke-linecap:round;stroke-linejoin:round;stroke-width:4px;}</style></defs><title>Asset 2</title><g id="Layer_2" data-name="Layer 2"><g id="Layer_1-2" data-name="Layer 1"><path class="cls-1" d="M2,205c63.85,21.14,154.42,2.42,154.42,2.42s-.33-14.53,1.65-17.17,7.6-4,7.6-4l3.3-39.63c-13.87-10.79,6.39-30.39,65.72-29.39s79.16,20.81,64.73,31.38l-1.65,37-11.59-3.14,1.72-38.58-11.3-3.76-1.72,40-12.58-1.83.54-40.88-14.74-2.65-1,42.93-15.78-.66.49-42.51-17,.74-1.51,41-13.43.82,1.21-40.31-12.25,1.72-2,40.05-10.5,1.77,4.18-65.85c-15.85-6.58,2.65-25.9,50.54-26.56s74.31,20.31,59.12,26.92c0,0-40-26.92-102.22-8.42-3.47-40.79,31.71-71.17,36.17-67.21s-27.08,30.55-20.81,40c9.08,6.11,34.76-21,75.74,4.79,4,2.53,2.31-33.8-35.89-45.1,0,0,.07-22.83,0-28.11C243-4.1,251.33-1,254.63,27.44a117.08,117.08,0,0,0-25.87,3c-15.08,3.3,2.62-22.77,5.16-18.59S221.83,145,221.61,173.62s35.52,37.7,76.7,28.75c67.16-14.59,133.49,15.41,133.49,15.41"/></g></g></svg>