<?xml version="1.0" encoding="UTF-8"?>
<svg width="320px" height="216px" viewBox="0 0 320 216" version="1.1" xmlns="http://www.w3.org/2000/svg" xmlns:xlink="http://www.w3.org/1999/xlink">
    <!-- Generator: Sketch 58 (84663) - https://sketch.com -->
    <title>Group 3</title>
    <desc>Created with Sketch.</desc>
    <defs>
        <polygon id="path-1" points="0 0 320 0 320 220 0 220"></polygon>
    </defs>
    <g id="Symbols" stroke="none" stroke-width="1" fill="none" fill-rule="evenodd">
        <g id="Content-Block/Mobile/Footer" transform="translate(0.000000, -287.000000)">
            <g id="Group-3" transform="translate(0.000000, 287.000000)">
                <mask id="mask-2" fill="white">
                    <use xlink:href="#path-1"></use>
                </mask>
                <g id="Clip-2"></g>
                <path d="M179.508291,61.1198858 C180.348349,61.1198858 181.291141,61.4034056 181.943003,62.5429369 C182.39758,63.3380645 188.219798,72.5179256 193.083768,80.1729592 C187.481565,50.6541899 181.405694,29.9245333 153.604696,27.8408447 C127.561091,25.8898289 115.411167,46.1278696 110.999955,56.2591575 C115.942112,56.8561847 120.666073,58.0175253 124.269956,58.9044333 C126.631027,59.4851036 128.671167,59.9858068 129.601231,60.0285165 C131.752288,60.1321102 134.888867,59.348796 138.863685,58.3628379 C142.258463,57.5222744 146.484207,56.4745235 151.440002,55.6494083 C160.813372,54.0882322 169.203948,58.1829118 173.710621,60.3820075 C174.587953,60.810922 175.346187,61.1807699 175.770762,61.3325256 C176.681733,61.6569377 177.380872,61.4933686 178.12456,61.3188949 C178.472765,61.2362016 178.969163,61.1198858 179.508291,61.1198858 M96.6762453,60.7618512 C95.6916323,65.9951536 94.5370077,77.8630001 98.7882084,82.9409118 C99.4664367,83.7514875 100.260128,84.3621455 101.177463,84.778338 C102.291176,82.3538805 103.51126,80.4664749 104.555877,78.8489583 C106.100528,76.4572146 107.216059,74.7297432 107.283337,72.5915317 C107.363342,70.0280405 107.073322,67.5835912 106.794212,65.2191091 C106.547832,63.143599 106.321452,61.2362016 106.392366,59.5250871 C102.934856,59.3942319 99.5618978,59.6986521 96.6762453,60.7618512 M113.61468,111.993509 C121.419761,114.588806 127.903842,114.265302 133.178749,112.785002 C130.654031,112.267942 127.869294,111.590039 125.003643,109.601766 C122.858041,110.46959 119.825106,110.836712 117.451307,109.638114 C116.241224,110.525022 114.867493,111.330146 113.61468,111.993509 M196.761293,183.577706 C206.249216,185.425128 214.478872,188.509314 222.489421,191.511716 C222.548516,191.533525 222.607611,191.556243 222.666706,191.578052 C219.69923,184.640905 218.020024,176.169844 219.811965,166.167593 C222.349412,151.996149 225.867835,141.976633 228.694392,133.926307 C232.478288,123.148921 235.212112,115.361215 234.005666,103.850494 C232.846495,92.795041 228.758942,86.7175405 224.805035,80.8408664 C221.246609,75.5503149 217.88456,70.553279 217.384525,62.7601204 C216.458098,48.3169693 214.173396,39.3670136 210.195851,34.5953396 C208.1348,32.1236289 204.179983,29.7864083 200.355176,27.5264286 C197.270418,25.7035419 194.0802,23.8188624 191.774587,21.7906057 C191.505478,21.5543392 164.072687,-1.52707753 144.637717,4.69945268 C136.771723,7.2211429 134.429744,11.844696 132.165953,16.3164933 C130.168543,20.2594172 128.103856,24.3368312 122.316186,25.3200632 L121.779786,25.410935 C111.146329,27.2083776 96.5816934,29.6710012 86.3455367,53.1658842 C80.6478731,66.2423246 83.5289798,77.9538718 86.3155346,89.2810317 C88.6211473,98.6508146 90.7976603,107.500811 87.3583334,115.764686 C80.2823935,132.759515 73.5928437,165.008979 83.043492,184.877172 C83.8580933,185.130704 84.6599665,185.383327 85.4491115,185.631407 C91.8413682,187.640581 97.3617469,189.376231 102.820303,189.453472 C111.131782,189.572513 116.991275,187.284364 120.295138,182.658993 C125.29639,175.65551 124.694531,163.209719 118.507743,145.660573 C115.48299,144.759125 110.100803,143.042558 108.71798,141.856682 C106.705115,140.132846 96.4425929,111.636383 98.0845237,96.4635324 C98.4372752,93.2039638 99.0682276,90.4823558 99.8391896,88.1678531 C98.3636338,87.5308423 97.0790002,86.5639672 95.9961987,85.269954 C89.40211,77.3886497 93.1487306,59.7995197 93.3105599,59.0552804 C93.4351139,58.4864234 93.8242315,58.012073 94.3569953,57.7785327 C98.1718025,56.1055843 102.674839,55.6966616 107.192421,55.9265671 C110.810851,47.1465415 115.509355,41.1580952 118.825947,37.6713473 C128.302051,27.7099895 140.09286,23.1836691 153.876533,24.2159719 C169.12667,25.3591381 179.419194,31.8273871 186.269664,44.571237 C192.339171,55.865683 195.048448,70.6323374 198.184118,87.7307601 L198.367766,88.7276229 C198.524141,89.5827258 198.053199,90.4296502 197.243144,90.7477012 C196.433997,91.0648435 195.512116,90.7649668 195.044811,90.0307233 C194.452043,89.1011057 181.325688,68.4814038 179.077352,64.8292694 C179.035531,64.8383566 178.995529,64.8483525 178.957344,64.8565309 C178.026371,65.0764405 176.469901,65.4417448 174.547951,64.7556633 C173.932454,64.5357538 173.129672,64.1440966 172.114147,63.6479371 C167.972954,61.62695 160.264244,57.8639521 152.037316,59.2342976 C147.221531,60.0366949 143.246713,61.0217444 139.739199,61.8913867 C135.477998,62.9473161 132.114131,63.7815185 129.435765,63.6597504 C128.149313,63.6006838 126.157359,63.1108852 123.400806,62.4329822 C119.776012,61.5424393 114.943862,60.3538372 110.020797,59.8022459 C109.978976,61.1971268 110.182626,62.9136936 110.405369,64.792012 C110.687206,67.172851 111.006319,69.8699237 110.918131,72.7051213 C110.819034,75.8529177 109.332568,78.1546983 107.610632,80.8199659 C106.738754,82.1703196 105.783234,83.6497112 104.889536,85.4426102 C104.935903,85.4417015 104.98227,85.4398841 105.029546,85.4380666 C114.220176,85.0982064 118.223178,78.2982757 121.439762,72.8341592 C123.573545,69.2111037 125.413671,66.074212 128.525703,66.440425 C131.300439,66.7612022 133.035103,69.9017288 135.434359,74.2472144 C139.074608,80.8390489 143.609465,89.0456739 152.374611,88.2460028 C161.461598,87.4199788 166.877425,78.9125685 170.113101,73.8292045 C172.083236,70.7341137 173.168765,69.0293603 174.901611,68.9357624 C175.710758,68.8903265 176.440808,69.2392739 176.979936,69.9126334 C177.031757,69.978061 177.079943,70.0471235 177.122673,70.1189122 C180.793834,76.2927368 181.993007,80.899933 180.896568,84.6184037 C179.622844,88.9384453 175.612569,90.9321708 171.73503,92.8586513 C168.390256,94.5216037 165.230948,96.091867 164.024502,98.9634134 C162.094369,103.55607 162.462576,107.915186 162.75896,111.417383 C163.004432,114.317099 163.198081,116.607975 161.887082,118.152794 C161.221582,118.937926 160.280608,119.384106 159.089618,119.478613 C154.902058,119.811203 153.611969,114.951384 152.665541,111.401934 C152.308243,110.063394 151.724567,107.876112 151.212714,107.30362 C150.662676,107.506264 149.325311,108.424068 148.235237,109.171942 C146.823322,110.139726 145.07502,111.339233 142.987604,112.525109 C143.3249,112.766828 143.662196,113.028538 144.000401,113.313875 C147.287899,116.088189 157.293131,124.530172 154.511122,139.338627 C153.366498,145.429758 147.058792,144.358381 142.453931,143.575067 C139.851025,143.131613 136.609894,142.581839 135.748926,143.570523 C134.267915,145.271642 133.450586,156.730565 137.160841,165.675069 C139.632828,171.633527 143.342174,174.823125 148.184324,175.154806 C151.878214,175.401069 155.55392,173.823536 159.447824,172.14877 C162.012545,171.044679 164.665455,169.902421 167.366549,169.314481 C169.643978,168.817413 171.81049,168.47937 173.905179,168.153141 C180.401989,167.139012 184.10497,166.416582 184.655008,163.349661 C185.679623,157.630195 187.237912,150.263225 188.490725,144.343841 C189.427153,139.918389 190.2363,136.096324 190.479044,134.565136 C190.834522,132.333326 190.313578,129.810727 189.853546,127.585279 C189.218957,124.509271 188.670738,121.852182 190.550867,120.263744 C192.188252,118.879768 194.879345,119.100586 199.839686,121.025249 C199.915145,121.05342 200.1788,120.940739 200.496094,120.659945 C202.558963,118.833424 204.007244,113.767325 203.745408,112.735931 C203.215372,110.984833 201.485253,109.957074 199.481479,108.767563 C197.835003,107.788875 196.131249,106.777473 194.94935,105.202666 C193.851093,103.738722 193.847456,101.616868 194.939349,99.2287588 C196.922213,94.8905429 202.305309,90.0180013 207.158369,89.6772324 C209.930378,89.4836756 212.336907,90.7440663 213.925197,93.2284991 C221.24479,104.677427 219.231016,116.562539 207.588399,130.631299 C200.227894,139.525823 191.270007,163.668621 196.761293,183.577706 M85.7191301,189.526169 L85.7582237,189.582509 C91.6959037,198.111729 101.151098,202.175512 113.832877,201.687531 C127.196521,201.163201 136.897186,196.46059 146.27783,191.911552 C158.129552,186.164824 170.38221,180.223631 189.783541,182.489972 C190.820885,182.61174 191.840955,182.748047 192.848297,182.900712 C187.967962,162.053831 197.175867,137.510288 204.786389,128.31407 C218.414596,111.846297 215.191648,101.959454 210.861351,95.185876 C209.974017,93.7982648 208.878487,93.196694 207.412023,93.3039227 C204.002698,93.5429153 199.761498,97.4258639 198.246849,100.739047 C197.617715,102.114845 197.717722,102.83364 197.858641,103.020836 C198.607783,104.019516 199.935147,104.808282 201.339789,105.642485 C203.658129,107.0201 206.287401,108.581276 207.227465,111.68818 C208.043885,114.385253 205.726453,120.773535 203.026268,123.273416 C201.114319,125.043597 199.3842,124.748264 198.523232,124.413856 C194.483864,122.846319 193.232869,122.962634 192.932848,123.040784 C192.753745,123.645081 193.149227,125.562474 193.415609,126.850127 C193.912006,129.255501 194.529321,132.247907 194.071108,135.13581 C193.812909,136.75787 193.034673,140.437266 192.048242,145.096259 C190.801793,150.990199 189.248959,158.326273 188.234344,163.990307 C187.200637,169.757026 181.015667,170.722993 174.466127,171.744391 C172.424169,172.062442 170.313115,172.392306 168.141148,172.865748 C165.781895,173.380082 163.404459,174.403297 160.886104,175.487397 C156.76764,177.259396 152.50553,179.095004 147.936125,178.780588 C141.691151,178.352582 136.803543,174.30243 133.802428,167.067223 C129.923071,157.718341 130.065808,144.561025 133.00601,141.184232 C135.20707,138.655272 139.200981,139.334083 143.063064,139.991086 C148.517074,140.917069 150.525394,140.857093 150.93724,138.667085 C153.080114,127.259958 146.666038,120.319176 141.654785,116.091824 C140.823819,115.391203 139.997399,114.86869 139.15825,114.463403 C131.848658,117.702979 121.565225,119.616738 108.273404,113.830935 C107.603359,113.539237 107.173329,112.874056 107.182421,112.142539 C107.191512,111.411021 107.638816,110.756745 108.316135,110.480495 C108.367047,110.460503 113.43194,108.389537 116.166673,106.020511 C116.859448,105.41894 117.893155,105.428936 118.57502,106.044138 C119.812378,107.158225 122.61257,106.897423 124.289049,105.918735 C124.936366,105.540708 125.74824,105.598866 126.335553,106.06413 C129.103924,108.258682 131.762288,108.793916 134.577936,109.360047 C136.056219,109.658106 137.558141,109.9598 139.077336,110.497761 C141.948442,109.075618 144.303149,107.460828 146.176914,106.174993 C148.270694,104.73922 149.653516,103.790519 150.947241,103.65512 C154.267469,103.299812 155.282993,107.109154 156.179418,110.465047 C156.761276,112.647786 157.627699,115.960968 158.799598,115.855557 C159.006885,115.8392 159.10871,115.800126 159.130529,115.786495 C159.445097,115.379389 159.25872,113.179385 159.135075,111.72362 C158.823236,108.030594 158.395934,102.971765 160.671544,97.5558104 C162.401663,93.4384128 166.500126,91.4019776 170.115828,89.604535 C173.441511,87.9515784 176.582636,86.3904023 177.408147,83.5915533 C178.106377,81.2225276 177.223589,77.7803069 174.782512,73.3475844 C174.296115,74.030031 173.70062,74.965101 173.181493,75.781129 C169.586701,81.4278977 163.570834,90.8785565 152.704634,91.8654234 C152.184598,91.9126767 151.674563,91.9353946 151.178166,91.9353946 C141.047471,91.937212 135.788019,82.4093122 132.251413,76.0037647 C130.964961,73.6756313 129.022101,70.1570783 128.108401,70.0516671 C127.38017,69.9744262 125.679144,72.8005366 124.574523,74.6770376 C121.297025,80.2438392 116.343958,88.6567429 105.1641,89.0702093 C104.55224,89.0929272 103.957654,89.0802052 103.383978,89.0311344 C102.6412,91.1875203 102.036613,93.7401069 101.700226,96.853372 C100.201942,110.70404 109.582585,136.56704 111.181786,139.165062 C112.182764,139.805708 116.667617,141.344166 120.416965,142.432809 C120.977003,142.595469 121.424307,143.016205 121.621593,143.564162 C128.522975,162.759904 129.073013,176.624202 123.254432,184.769943 C119.215973,190.423981 112.343684,193.204656 102.768481,193.08834 C97.1899169,193.009282 91.8140936,191.434475 85.7191301,189.526169 M198.083201,187.56334 C198.215938,187.904109 198.354129,188.243969 198.497775,188.580194 C204.335449,202.337264 217.284519,210.213116 236.99678,211.998745 C236.502201,211.422618 235.917615,210.771977 235.365759,210.157684 C232.561021,207.038967 228.416191,202.429044 225.009594,196.331552 C223.747689,195.86538 222.483966,195.39103 221.21297,194.914862 C213.93338,192.186893 206.468322,189.389861 198.083201,187.56334 M-578.578257,220 C-613.053349,220 -645.702861,210.797421 -666.547018,197.635561 C-689.382221,183.216945 -713.981181,172.508622 -739.659306,165.809559 C-769.943202,157.907354 -800.996241,155.864558 -831.955637,159.732058 C-832.95116,159.85837 -833.860314,159.149571 -833.985777,158.154525 C-834.110331,157.158571 -833.403009,156.249854 -832.406577,156.12536 C-800.987149,152.197884 -769.47317,154.273394 -738.740152,162.291915 C-712.699275,169.086393 -687.756655,179.943746 -664.605067,194.563188 C-622.666735,221.045933 -531.838687,231.160865 -477.314038,180.177286 C-459.773743,163.776758 -433.189193,145.242563 -406.161884,150.08966 C-388.340662,153.28471 -376.288926,165.822281 -370.953105,176.489712 C-365.302718,187.785067 -354.5738,197.050347 -341.51745,201.911076 C-325.75455,207.778662 -307.366925,207.120751 -288.339256,200.010948 C-283.278,198.119907 -278.278566,196.222506 -273.390958,194.368723 C-240.41506,181.860231 -214.367818,171.97884 -205.056271,176.796858 C-203.187052,177.764642 -201.978787,179.262208 -201.466024,181.25139 C-199.884098,187.377961 -204.564419,192.399533 -208.223761,195.644562 C-212.46587,199.406651 -216.436142,205.702244 -215.453348,209.311668 C-215.306065,209.849629 -214.85967,211.488955 -211.483984,212.15141 C-203.085226,213.803457 -189.36974,208.582877 -173.493196,202.539908 C-146.625899,192.315931 -113.18906,179.588438 -86.5163211,193.524525 C-56.8161019,209.039053 -25.2221165,198.865056 2.65343205,189.887838 C13.6869162,186.333845 24.1085402,182.977044 34.0510404,181.195958 C53.5451049,177.704667 67.3596889,180.320864 78.4913615,183.51137 C70.3271651,162.477293 76.73215,131.827171 83.9999212,114.367987 C86.9810348,107.208204 85.036356,99.3023649 82.7843833,90.1488566 C79.9905553,78.7908004 76.8230653,65.9170039 83.0116716,51.7146629 C94.0333368,26.4159762 110.366275,23.6543846 121.17338,21.8269544 L121.707053,21.7360826 C125.687326,21.0609058 127.043783,18.3820075 128.921184,14.67535 C131.279528,10.0190831 134.214275,4.22419359 143.526732,1.23905761 C165.193673,-5.70808534 193.892914,18.8127394 194.17657,19.0617279 C196.225801,20.8637141 199.130546,22.5802809 202.206212,24.3977153 C206.296492,26.814903 210.526782,29.314784 212.989679,32.2681149 C217.485442,37.6613515 220.035616,47.2764881 221.013865,62.5274888 C221.451168,69.3401416 224.404098,73.7301543 227.823423,78.8126096 C231.829153,84.7674334 236.369464,91.5173847 237.622277,103.471559 C238.914184,115.794673 235.918524,124.327528 232.125537,135.129449 C229.197154,143.470564 225.877835,152.924858 223.391301,166.808239 C221.47026,177.535646 223.944976,186.4229 227.596135,193.409117 C238.944186,197.553777 250.253144,200.957831 264.932333,200.088189 C277.076802,199.363941 287.49388,195.919903 297.567298,192.588546 C312.434682,187.671477 326.478373,183.026115 344.116855,187.546983 C351.796473,189.515264 357.912347,193.190117 363.826389,196.745018 C376.496349,204.358251 387.438918,210.931911 410.770518,200.261754 C416.321808,197.721889 421.138502,195.431922 425.387885,193.411844 C448.485833,182.428179 455.45722,179.113179 472.933873,187.053549 C473.847573,187.469742 474.252146,188.546572 473.836663,189.460741 C473.42118,190.373093 472.344742,190.778381 471.428316,190.362189 C455.492677,183.120621 449.445899,185.99762 426.94981,196.693221 C422.688609,198.718752 417.859186,201.015989 412.283349,203.56585 C387.206175,215.035678 374.368021,207.31976 361.952624,199.859192 C356.262234,196.441507 350.378194,192.904779 343.213157,191.068262 C326.608382,186.813648 313.057452,191.294533 298.710104,196.038945 C288.414852,199.443908 277.768668,202.964279 265.148711,203.715788 C251.573234,204.52909 240.880683,201.87927 230.514517,198.307103 C233.182882,202.290919 236.011258,205.437807 238.07049,207.727774 C240.962507,210.944633 242.413515,212.559424 241.536182,214.337783 C240.74431,215.942578 238.66144,215.781735 237.875931,215.719942 C216.048979,214.027911 201.673448,205.375105 195.149364,190.000519 C194.697515,188.935503 194.292032,187.852312 193.930189,186.756399 C192.439178,186.502867 190.917255,186.282049 189.360785,186.100305 C171.017709,183.960276 159.772392,189.408944 147.865211,195.182025 C138.147272,199.893723 128.100219,204.765356 113.975614,205.318765 C99.9737442,205.870356 89.4648416,201.272247 82.7734735,191.658019 C81.9379616,190.458513 81.1770003,189.201757 80.4860438,187.894113 C69.2079975,184.460071 55.1633977,181.108722 34.6929026,184.774487 C24.991328,186.511954 14.682439,189.831498 3.76896312,193.346416 C-24.7857229,202.541725 -57.1506703,212.967438 -88.2000729,196.745927 C-113.423621,183.56771 -146.01313,195.970791 -172.198562,205.937601 C-188.59696,212.17958 -202.756113,217.566455 -212.184941,215.718125 C-216.805258,214.811225 -218.420824,212.253186 -218.96177,210.26673 C-220.565516,204.382786 -214.861489,196.671412 -210.636653,192.924771 C-205.893601,188.719228 -204.150754,185.397867 -204.987175,182.160107 C-205.238101,181.18778 -205.790867,180.509877 -206.728204,180.024622 C-214.598743,175.949934 -242.52975,186.548303 -272.099961,197.767325 C-276.993933,199.623834 -281.998821,201.522145 -287.066442,203.415002 C-306.925077,210.835587 -326.192762,211.494407 -342.786628,205.317856 C-356.696673,200.139986 -368.148367,190.225881 -374.205146,178.116316 C-379.147304,168.235834 -390.306251,156.626063 -406.803746,153.66728 C-427.020588,150.039681 -450.545838,160.126442 -474.830231,182.832558 C-503.546746,209.684242 -542.085753,220 -578.578257,220" id="Fill-1" fill="#F53362" mask="url(#mask-2)"></path>
            </g>
        </g>
    </g>
</svg>