<?xml version="1.0" encoding="UTF-8"?>
<svg width="1440px" height="301px" viewBox="0 0 1440 301" version="1.1" xmlns="http://www.w3.org/2000/svg" xmlns:xlink="http://www.w3.org/1999/xlink">
    <!-- Generator: Sketch 58 (84663) - https://sketch.com -->
    <title>Group 3</title>
    <desc>Created with Sketch.</desc>
    <defs>
        <polygon id="path-1" points="0.5 0.960736623 1441.5 0.960736623 1441.5 300.960737 0.5 300.960737"></polygon>
    </defs>
    <g id="*Home" stroke="none" stroke-width="1" fill="none" fill-rule="evenodd">
        <g id="Desktop-HD" transform="translate(0.000000, -4081.000000)">
            <g id="Group-3" transform="translate(-1.000000, 4081.000000)">
                <mask id="mask-2" fill="white">
                    <use xlink:href="#path-1"></use>
                </mask>
                <g id="Clip-2"></g>
                <path d="M1059.28882,84.3060355 C1060.4333,84.3060355 1061.71775,84.6926533 1062.60583,86.2465597 C1063.22514,87.3308246 1071.15725,99.848817 1077.78385,110.287499 C1070.15149,70.0346319 1061.87381,41.7669184 1023.99814,38.9255249 C988.516716,36.2650488 971.963837,63.8623769 965.954067,77.6777696 C972.68719,78.4918976 979.123044,80.0755439 984.032922,81.2849639 C987.249611,82.076787 990.029067,82.759564 991.296173,82.8178045 C994.226741,82.9590688 998.49997,81.890913 1003.9152,80.5464246 C1008.5402,79.4002018 1014.29729,77.9714505 1021.04899,76.8462934 C1033.81914,74.7174169 1045.25033,80.301071 1051.39016,83.2998377 C1052.58542,83.8847211 1053.61843,84.3890592 1054.19686,84.5959989 C1055.43796,85.0383789 1056.39045,84.8153301 1057.40364,84.5774115 C1057.87803,84.4646479 1058.55432,84.3060355 1059.28882,84.3060355 M946.439655,83.8178065 C945.098233,90.9541278 943.525189,107.137555 949.316963,114.06198 C950.240971,115.167311 951.322284,116.000026 952.572048,116.567561 C954.089354,113.261483 955.751578,110.687748 957.17475,108.482043 C959.27916,105.220575 960.798943,102.864932 960.890601,99.9491889 C960.999599,96.4535191 960.60448,93.1201792 960.224225,89.8958854 C959.88856,87.0656444 959.580144,84.4646479 959.676756,82.13131 C954.966295,81.952871 950.371026,82.3679895 946.439655,83.8178065 M969.51633,153.679158 C980.149858,157.218199 988.983675,156.777058 996.170131,154.758466 C992.730491,154.053385 988.936607,153.128971 985.032486,150.41769 C982.10935,151.601087 977.977323,152.101708 974.743294,150.467256 C973.094695,151.676676 971.223144,152.774572 969.51633,153.679158 M1082.79405,251.293972 C1095.72026,253.813184 1106.93222,258.018893 1117.84568,262.113077 C1117.92619,262.142816 1118.0067,262.173795 1118.08721,262.203535 C1114.04436,252.743789 1111.75664,241.192342 1114.19795,227.552909 C1117.65493,208.228212 1122.44838,194.565236 1126.29924,183.587519 C1131.45437,168.891084 1135.17889,158.271485 1133.53524,142.575047 C1131.956,127.499429 1126.38718,119.211928 1121.00044,111.198282 C1116.15249,103.983893 1111.57208,97.1697535 1110.89084,86.5427189 C1109.62869,66.8475129 1106.51605,54.6430279 1101.0971,48.1361998 C1098.28915,44.7656851 1092.90117,41.5785661 1087.69031,38.4967756 C1083.48768,36.011021 1079.14137,33.4410036 1076.00024,30.6751989 C1075.63361,30.3530173 1038.25958,-1.12164182 1011.78166,7.36908119 C1001.06515,10.8077497 997.874468,17.1125948 994.790311,23.2105002 C992.06907,28.5872146 989.25617,34.1473247 981.371134,35.4880956 L980.64035,35.6120116 C966.153485,38.0630697 946.310839,41.4211928 932.36525,73.4596697 C924.602836,91.2911793 928.528014,107.261471 932.324375,122.707598 C935.465508,135.484575 938.430757,147.552752 933.745069,158.821671 C924.104912,181.996438 914.991168,225.972981 927.866592,253.065971 C928.976393,253.411696 930.068853,253.756183 931.143973,254.094473 C939.85269,256.834256 947.373573,259.201051 954.81023,259.30638 C966.133667,259.46871 974.116554,256.348505 978.617688,250.041182 C985.431321,240.490977 984.611356,223.519444 976.182567,199.58879 C972.061688,198.359544 964.729075,196.018771 962.845138,194.401667 C960.10284,192.050981 946.121331,153.192168 948.358273,132.501917 C948.838857,128.057051 949.698457,124.345767 950.748804,121.189627 C948.738529,120.320976 946.988363,119.00251 945.51317,117.237947 C936.52948,106.490714 941.633821,82.5055363 941.854295,81.4906644 C942.023985,80.7149503 942.554114,80.0681089 943.279943,79.7496448 C948.47718,77.4683516 954.612051,76.9107297 960.766739,77.2242372 C965.696435,65.2514751 972.097608,57.0854119 976.616083,52.3307557 C989.526189,38.7470859 1005.58981,32.5748309 1024.36849,33.9825164 C1045.14505,35.5413795 1059.16743,44.361719 1068.50041,61.7396962 C1076.76942,77.1412134 1080.4605,97.2775604 1084.73249,120.593591 L1084.98269,121.95295 C1085.19573,123.118999 1084.55413,124.273896 1083.45052,124.707602 C1082.34815,125.140069 1081.09219,124.731146 1080.45555,123.729905 C1079.64797,122.462244 1061.76481,94.3444691 1058.70171,89.3642858 C1058.64474,89.3766774 1058.59024,89.3903082 1058.53822,89.4014606 C1057.26987,89.7013373 1055.14936,90.1994795 1052.53092,89.2639139 C1051.69238,88.9640372 1050.59868,88.4299593 1049.21515,87.7533781 C1043.57324,84.9974866 1033.07101,79.8661259 1021.86276,81.7347789 C1015.30181,82.828957 1009.88658,84.1722062 1005.10799,85.3580821 C999.302593,86.7979858 994.71971,87.9355346 991.070744,87.7694871 C989.318101,87.6889417 986.604291,87.0210346 982.848804,86.0966214 C977.910438,84.8822448 971.327188,83.2614237 964.620077,82.5092537 C964.5631,84.4113641 964.840551,86.7521369 965.144012,89.3134803 C965.527983,92.560079 965.962738,96.2379053 965.842592,100.104084 C965.707583,104.396533 963.682444,107.535325 961.336503,111.169781 C960.148669,113.011172 958.846883,115.028525 957.629322,117.473387 C957.692491,117.472148 957.755661,117.469669 957.820069,117.467191 C970.341249,117.003745 975.79488,107.731113 980.177107,100.280045 C983.084141,95.3395144 985.591102,91.0619348 989.830889,91.5613162 C993.611148,91.9987396 995.974429,96.2812759 999.24314,102.206938 C1004.20256,111.195803 1010.38078,122.386656 1022.32229,121.296195 C1034.70227,120.169799 1042.08071,108.568785 1046.48895,101.636925 C1049.17303,97.4163463 1050.65194,95.0916825 1053.01275,94.964049 C1054.11511,94.902091 1055.10972,95.3779284 1055.84422,96.2961458 C1055.91483,96.3853653 1055.98047,96.4795414 1056.03869,96.5774351 C1061.04022,104.996287 1062.67396,111.278827 1061.18019,116.349469 C1059.44488,122.240435 1053.98134,124.959151 1048.69864,127.58617 C1044.14177,129.853833 1039.83758,131.995101 1038.19393,135.910846 C1035.56435,142.173559 1036.06599,148.117809 1036.46978,152.893531 C1036.8042,156.84769 1037.06803,159.971612 1035.28194,162.078183 C1034.37527,163.148818 1033.09331,163.757245 1031.47072,163.886118 C1025.76565,164.33965 1024.00805,157.712623 1022.71865,152.872465 C1022.23187,151.047183 1021.43668,148.064525 1020.73934,147.283854 C1019.98998,147.560187 1018.16797,148.811739 1016.68287,149.831567 C1014.7593,151.151272 1012.37744,152.786963 1009.53357,154.404067 C1009.9931,154.733683 1010.45262,155.090561 1010.91339,155.479657 C1015.39223,159.262812 1029.02321,170.774607 1025.23304,190.967955 C1023.67362,199.274043 1015.0801,197.813074 1008.8065,196.744918 C1005.26034,196.140208 1000.84467,195.390517 999.671701,196.738722 C997.653994,199.05843 996.540477,214.684235 1001.59527,226.881285 C1004.96307,235.006456 1010.01663,239.355907 1016.61351,239.8082 C1021.64601,240.144012 1026.65374,237.992831 1031.95873,235.709059 C1035.45287,234.20348 1039.06716,232.645856 1042.74709,231.84412 C1045.84982,231.166299 1048.80145,230.705332 1051.65522,230.260474 C1060.50638,228.877571 1065.55127,227.892439 1066.30063,223.710275 C1067.69655,215.911003 1069.81954,205.865134 1071.52636,197.793247 C1072.80213,191.758539 1073.9045,186.546633 1074.23521,184.458649 C1074.71951,181.415272 1074.00978,177.975365 1073.38304,174.940662 C1072.51849,170.746106 1071.7716,167.122803 1074.33306,164.956752 C1076.56381,163.069511 1080.23012,163.370627 1086.98801,165.995168 C1087.09082,166.033582 1087.45002,165.879926 1087.88229,165.497025 C1090.69272,163.006314 1092.66583,156.097998 1092.30911,154.691552 C1091.587,152.303691 1089.22991,150.902201 1086.5,149.280141 C1084.25686,147.945566 1081.93569,146.566381 1080.32549,144.418917 C1078.82924,142.422631 1078.82429,139.529192 1080.31187,136.27268 C1083.01329,130.356931 1090.34714,123.712557 1096.95888,123.247872 C1100.73542,122.983931 1104.01404,124.702645 1106.17791,128.090508 C1116.15001,143.702683 1113.40648,159.909654 1097.54475,179.094326 C1087.5169,191.223222 1075.31281,224.14522 1082.79405,251.293972 M931.511842,259.405512 L931.565103,259.48234 C939.654511,271.113094 952.536129,276.654617 969.813598,275.989188 C988.020031,275.274193 1001.23607,268.861541 1014.01613,262.658307 C1030.16274,254.82186 1046.85558,246.720233 1073.28767,249.810698 C1074.70093,249.976745 1076.09066,250.162619 1077.46305,250.370798 C1070.81415,221.943233 1083.35886,188.474766 1093.72733,175.934468 C1112.2942,153.478414 1107.9033,139.996356 1102.00377,130.759658 C1100.79488,128.867461 1099.30234,128.047138 1097.30445,128.193358 C1092.65964,128.519257 1086.88149,133.814187 1084.81795,138.332164 C1083.96083,140.208252 1084.09708,141.188427 1084.28907,141.443694 C1085.30969,142.805531 1087.11807,143.881122 1089.03173,145.01867 C1092.1902,146.897237 1095.77228,149.026113 1097.05301,153.262801 C1098.16529,156.940627 1095.00806,165.65192 1091.32936,169.060849 C1088.72455,171.474732 1086.36746,171.072005 1085.19449,170.615995 C1079.69132,168.478444 1077.98698,168.637056 1077.57824,168.743624 C1077.33423,169.567665 1077.87303,172.182293 1078.23594,173.938182 C1078.91223,177.218238 1079.75325,181.298791 1079.12899,185.236841 C1078.77722,187.448741 1077.71696,192.466099 1076.37306,198.819272 C1074.67492,206.856462 1072.55936,216.860199 1071.17707,224.583883 C1069.76876,232.447591 1061.34245,233.764818 1052.41945,235.157633 C1049.63751,235.591339 1046.76145,236.041154 1043.80239,236.686756 C1040.58818,237.388121 1037.34919,238.783415 1033.91822,240.261732 C1028.30729,242.678094 1022.50065,245.181197 1016.27536,244.752448 C1007.7673,244.168803 1001.1085,238.645868 997.019822,228.779678 C991.734643,216.031202 991.929106,198.089407 995.934794,193.484689 C998.933486,190.036107 1004.37473,190.961759 1009.63638,191.857672 C1017.06684,193.120376 1019.80294,193.038591 1020.36404,190.052216 C1023.28346,174.497043 1014.54502,165.03234 1007.71776,159.267769 C1006.58566,158.312377 1005.45976,157.59986 1004.31652,157.047195 C994.358034,161.464799 980.348036,164.07447 962.239455,156.184739 C961.326594,155.786969 960.740728,154.879904 960.753114,153.88238 C960.7655,152.884857 961.3749,151.992662 962.29767,151.615957 C962.367032,151.588696 969.267368,148.76465 972.993128,145.534161 C973.936954,144.713837 975.345262,144.727468 976.274225,145.566379 C977.959983,147.085589 981.774923,146.72995 984.058933,145.395375 C984.940828,144.879884 986.046914,144.959191 986.84706,145.593641 C990.618649,148.586211 994.240365,149.316077 998.076363,150.088073 C1000.09035,150.494518 1002.13655,150.905919 1004.20628,151.639501 C1008.11783,149.700216 1011.32585,147.498229 1013.87864,145.744818 C1016.73117,143.786946 1018.61511,142.493263 1020.37766,142.308628 C1024.90109,141.824116 1026.28463,147.018674 1027.5059,151.594891 C1028.29862,154.571353 1029.47902,159.08933 1031.0756,158.945587 C1031.358,158.923283 1031.49673,158.869999 1031.52646,158.851411 C1031.95502,158.296268 1031.7011,155.296262 1031.53265,153.311128 C1031.1078,148.275182 1030.52565,141.37678 1033.62591,133.991387 C1035.983,128.376754 1041.56669,125.599797 1046.49267,123.148739 C1051.02353,120.894707 1055.30295,118.765831 1056.42761,114.949218 C1057.37887,111.718729 1056.17617,107.024791 1052.85049,100.98017 C1052.18783,101.910779 1051.37653,103.185874 1050.66928,104.29864 C1045.77179,111.998779 1037.57586,124.886041 1022.77191,126.231768 C1022.06342,126.296205 1021.36856,126.327184 1020.69227,126.327184 C1006.89036,126.329662 999.724962,113.337071 994.906741,104.602234 C993.154098,101.427507 990.507174,96.6294798 989.262363,96.4857372 C988.270231,96.3804087 985.952779,100.234196 984.447859,102.793061 C979.982644,110.384154 973.234659,121.856295 958.003384,122.420113 C957.169795,122.451092 956.359739,122.433744 955.578172,122.366829 C954.566222,125.307355 953.742542,128.788155 953.284253,133.033517 C951.243012,151.92079 964.023063,187.188518 966.201791,190.731276 C967.565508,191.604883 973.675606,193.702781 978.783663,195.187294 C979.546651,195.409104 980.156051,195.982835 980.424831,196.730048 C989.827173,222.90606 990.576536,241.811921 982.649387,252.91975 C977.14745,260.629802 967.784743,264.421631 954.739628,264.263019 C947.139474,264.155212 939.815531,262.007748 931.511842,259.405512 M1084.595,256.728927 C1084.77584,257.193612 1084.96411,257.657058 1085.15981,258.115547 C1093.11297,276.875187 1110.7546,287.614985 1137.61029,290.049934 C1136.93648,289.264307 1136.14005,288.377069 1135.38821,287.539397 C1131.56708,283.2866 1125.92022,277.000343 1121.27913,268.68558 C1119.55993,268.049891 1117.83825,267.40305 1116.10666,266.75373 C1106.18905,263.033772 1096.01877,259.219638 1084.595,256.728927 M26.4828339,300.960737 C-20.4855256,300.960737 -64.966742,288.411765 -93.3645157,270.463775 C-124.474861,250.802026 -157.988123,236.199767 -192.971624,227.064681 C-234.229958,216.288947 -276.536163,213.503316 -318.71479,218.77718 C-320.071076,218.949423 -321.309693,217.982878 -321.480622,216.625998 C-321.650313,215.267879 -320.686669,214.028719 -319.329145,213.858954 C-276.523777,208.503306 -233.589593,211.333547 -191.719382,222.267893 C-156.241673,231.533091 -122.260213,246.338572 -90.7188296,266.274175 C-33.5826626,302.38701 90.1601377,316.180097 164.44372,246.657036 C188.340359,224.29268 224.558761,199.018777 261.380369,205.628455 C285.659741,209.985341 302.078849,227.082029 309.348293,241.628526 C317.046298,257.031282 331.663218,269.665756 349.450998,276.294021 C370.92614,284.295276 395.977171,283.398125 421.900187,273.702938 C428.795569,271.124247 435.606724,268.536881 442.265529,266.008995 C487.191409,248.95196 522.677789,235.477336 535.363705,242.047362 C537.910301,243.367067 539.556423,245.409202 540.255003,248.121723 C542.410197,256.476139 536.033796,263.323736 531.048363,267.748775 C525.268975,272.878897 519.859935,281.463796 521.19888,286.385739 C521.399536,287.119322 522.007697,289.354766 526.606682,290.258113 C538.049026,292.510906 556.734804,285.391933 578.364774,277.15152 C614.968385,263.209733 660.522244,245.854061 696.860792,264.857816 C737.323935,286.013991 780.367117,272.140358 818.344355,259.898698 C833.376211,255.052344 847.574479,250.474888 861.119995,248.046134 C887.678423,243.285282 906.499209,246.852824 921.664837,251.203514 C910.542055,222.520681 919.268113,180.72506 929.169617,156.917083 C933.231043,147.153743 930.581641,136.373052 927.513586,123.890996 C923.707316,108.402737 919.391974,90.8475601 927.823241,71.4807314 C942.838995,36.9825223 965.090751,33.2167157 979.814192,30.7247653 L980.541261,30.6008493 C985.963926,29.6801536 987.811943,26.0271105 990.369687,20.9725776 C993.58266,14.6231227 997.580916,6.72100061 1010.26807,2.65036064 C1039.78679,-6.82301611 1078.88622,26.6144722 1079.27267,26.954002 C1082.06451,29.4112559 1086.02189,31.7520288 1090.21213,34.2303484 C1095.78467,37.5265135 1101.54796,40.9354421 1104.90337,44.9627115 C1111.02833,52.317125 1114.50265,65.4286749 1115.8354,86.225494 C1116.43118,95.5154751 1120.45421,101.501856 1125.11265,108.432477 C1130.56999,116.552691 1136.75565,125.75717 1138.46246,142.058318 C1140.22254,158.862564 1136.14129,170.498274 1130.97378,185.228167 C1126.9842,196.602415 1122.46201,209.494634 1119.07439,228.426517 C1116.45719,243.054799 1119.82871,255.173782 1124.80299,264.700442 C1140.26341,270.35225 1155.67057,274.994143 1175.66928,273.808267 C1192.21473,272.820657 1206.4068,268.124241 1220.13068,263.581481 C1240.38578,256.876387 1259.5187,250.541802 1283.54911,256.706622 C1294.01171,259.390642 1302.34389,264.401805 1310.40109,269.249398 C1327.66246,279.631079 1342.57045,288.595161 1374.35708,274.044946 C1381.92008,270.581495 1388.48227,267.458812 1394.27157,264.70416 C1425.73987,249.726435 1435.23759,245.20598 1459.04752,256.033759 C1460.29234,256.601294 1460.84352,258.069698 1460.27747,259.316293 C1459.71142,260.560409 1458.2449,261.113075 1456.99638,260.545539 C1435.28589,250.670675 1427.04785,254.593855 1396.39951,269.178766 C1390.59411,271.940853 1384.01458,275.073449 1376.41814,278.550531 C1342.25337,294.191207 1324.76285,283.669501 1307.8483,273.495999 C1300.0958,268.835519 1292.07947,264.012709 1282.31792,261.508367 C1259.69582,255.70662 1241.23424,261.816917 1221.68762,268.286571 C1207.66152,272.929703 1193.15731,277.730208 1175.96407,278.754993 C1157.46904,279.864041 1142.90166,276.250651 1128.77895,271.379514 C1132.41429,276.81199 1136.26763,281.103201 1139.0731,284.225883 C1143.01314,288.612509 1144.98997,290.814496 1143.79471,293.239532 C1142.71587,295.427888 1139.8782,295.208557 1138.80803,295.124294 C1109.07132,292.816978 1089.4863,281.017699 1080.59799,260.052354 C1079.98239,258.600059 1079.42997,257.12298 1078.937,255.628553 C1076.90567,255.282828 1074.83222,254.981712 1072.71171,254.73388 C1047.72137,251.815659 1032.40092,259.245661 1016.17875,267.118043 C1002.93917,273.543087 989.251216,280.186222 970.008061,280.940871 C950.932119,281.693041 936.614945,275.422892 927.498723,262.312581 C926.360434,260.67689 925.323711,258.963132 924.382362,257.179981 C909.017318,252.497196 889.883161,247.927175 861.994459,252.925946 C848.777176,255.295219 834.732497,259.82187 819.864138,264.61494 C780.961653,277.153998 736.868123,291.370879 694.566873,269.250637 C660.202681,251.280342 615.803213,268.193634 580.128564,281.784739 C557.787628,290.296527 538.497406,297.642267 525.651708,295.121816 C519.357056,293.885134 517.156034,290.396899 516.419056,287.688096 C514.234136,279.664536 522.005219,269.149026 527.761073,264.03997 C534.222938,258.305138 536.597367,253.776009 535.45784,249.360883 C535.115981,248.034982 534.362902,247.110569 533.085888,246.448857 C522.36318,240.892465 484.310386,255.344786 444.024366,270.643453 C437.35689,273.175056 430.538303,275.763661 423.634251,278.344831 C396.579139,288.46381 370.329127,289.362201 347.721888,280.939632 C328.771047,273.878899 313.169426,260.359665 304.917759,243.846622 C298.184637,230.373237 282.981851,214.541731 260.505905,210.507027 C232.962777,205.560301 200.912322,219.314975 167.827621,250.277861 C128.704662,286.893794 76.1996846,300.960737 26.4828339,300.960737" id="Fill-1" fill="#F53362" mask="url(#mask-2)"></path>
            </g>
        </g>
    </g>
</svg>