<svg xmlns="http://www.w3.org/2000/svg" viewBox="0 0 409.47 242.71"><defs><style>.cls-1{fill:none;stroke:#ee3764;stroke-linecap:round;stroke-linejoin:round;stroke-width:4px;}</style></defs><title>Asset 3</title><g id="Layer_2" data-name="Layer 2"><g id="Layer_1-2" data-name="Layer 1"><path class="cls-1" d="M2,236.7c29.39,10.9,121.43-5.56,147.19-2.59l1.65-107.83s43.27,19.76,52,19.93,58.25-22.86,70.84-28.54c11.4-5.15,20.82-17.53,1.83-26.45C251.8,80.08,214.26,62,207.33,62S149.2,83,136.16,88.25c-7.75,3.14-13.36,8.91-13.36,14.89,0,15.27,28.4,17.86,28.4-3.61,0-11.94,2.63-69.74,2.63-69.74H194L193.29,77,178.1,82.8s1.32-23.27,1.32-43.1c0-55.22-7.14-47.17-7.14,7.17-37.95,0-61.6-8-6.12-8,76.25,0,88.6,8.33-4.22,16.73l-1.85,177.81a73.85,73.85,0,0,1,17.17,2.15c9.58,2.31,14.53,2.64,14.53-6.44V133.51l9.41-.5s.12,60.55-.06,67.21c-.38,14.73,1.06,38.1,14.26,36.17,19.16-2.81,35.19-8.59,69-6.61s101.06,16.51,123,8.59"/></g></g></svg>