<?xml version="1.0" encoding="UTF-8"?>
<svg width="172px" height="47px" viewBox="0 0 172 47" version="1.1" xmlns="http://www.w3.org/2000/svg" xmlns:xlink="http://www.w3.org/1999/xlink">
    <!-- Generator: Sketch 59 (86127) - https://sketch.com -->
    <title>Rectangle</title>
    <desc>Created with Sketch.</desc>
    <g id="Approach" stroke="none" stroke-width="1" fill="none" fill-rule="evenodd">
        <g id="Projects/Desktop/HD" transform="translate(-711.000000, -2309.000000)" fill="#2A2A2A" fill-rule="nonzero">
            <g id="Rectangle" transform="translate(711.000000, 2310.000000)">
                <g id="Mask" transform="translate(-0.500000, -1.000000)">
                    <g id="Group">
                        <path d="M5.85748031,39.0598485 C2.17952756,35.9205808 0.54488189,30.3244949 0.54488189,26.229798 C0.54488189,21.3161616 2.17952756,16.8119949 5.4488189,13.1267677 C8.17322835,10.1239899 12.123622,7.94015152 18.1173228,7.94015152 C22.476378,7.94015152 26.1543307,9.03207071 27.7889764,9.9875 C28.4700787,10.2604798 28.7425197,10.2604798 28.7425197,9.9875 L29.1511811,8.75909091 C29.2874016,8.48611111 29.2874016,8.48611111 30.1047244,8.48611111 C30.7858268,8.48611111 30.9220472,8.62260101 30.9220472,9.30505051 C30.9220472,10.2604798 31.7393701,18.4498737 32.011811,19.8147727 C32.011811,20.0877525 32.011811,20.3607323 31.7393701,20.4972222 L30.6496063,20.770202 C30.3771654,20.9066919 30.2409449,20.6337121 30.1047244,20.2242424 C29.5598425,18.3133838 28.3338583,15.8565657 26.2905512,13.8092172 C24.2472441,11.7618687 21.6590551,10.1239899 17.9811024,10.1239899 C11.0338583,9.9875 8.17322835,16.4025253 8.17322835,23.5 C8.17322835,26.5027778 8.99055118,32.5083333 12.396063,36.0570707 C15.5291339,39.3328283 18.2535433,39.6058081 19.888189,39.6058081 C25.3370079,39.6058081 29.423622,37.1489899 31.1944882,34.4191919 C31.4669291,34.0097222 31.7393701,33.8732323 31.8755906,34.0097222 L32.6929134,34.6921717 C32.8291339,34.8286616 32.8291339,34.9651515 32.6929134,35.2381313 C29.9685039,39.3328283 25.2007874,43.1545455 18.3897638,43.1545455 C12.2598425,43.4275253 8.85433071,41.7896465 5.85748031,39.0598485 Z" id="Path"></path>
                        <path d="M41.0023622,39.0598485 C37.4606299,35.9205808 35.8259843,30.3244949 35.8259843,26.229798 C35.8259843,21.3161616 37.4606299,16.8119949 40.7299213,13.1267677 C43.4543307,10.1239899 47.4047244,7.94015152 53.3984252,7.94015152 C57.7574803,7.94015152 61.4354331,9.03207071 63.0700787,9.9875 C63.7511811,10.2604798 64.023622,10.2604798 64.023622,9.9875 L64.4322835,8.75909091 C64.5685039,8.48611111 64.5685039,8.48611111 65.3858268,8.48611111 C66.0669291,8.48611111 66.2031496,8.62260101 66.2031496,9.30505051 C66.2031496,10.2604798 67.0204724,18.4498737 67.2929134,19.8147727 C67.2929134,20.0877525 67.2929134,20.3607323 67.0204724,20.4972222 L65.9307087,20.770202 C65.6582677,20.9066919 65.5220472,20.6337121 65.3858268,20.2242424 C64.8409449,18.3133838 63.6149606,15.8565657 61.5716535,13.8092172 C59.5283465,11.7618687 56.9401575,10.1239899 53.2622047,10.1239899 C46.1787402,10.1239899 43.3181102,16.5390152 43.3181102,23.6364899 C43.3181102,26.6392677 44.1354331,32.6448232 47.5409449,36.1935606 C50.6740157,39.4693182 53.3984252,39.742298 55.0330709,39.742298 C60.4818898,39.742298 64.5685039,37.2854798 66.3393701,34.5556818 C66.611811,34.1462121 66.884252,34.0097222 67.0204724,34.1462121 L67.8377953,34.8286616 C67.9740157,34.9651515 67.9740157,35.1016414 67.8377953,35.3746212 C65.1133858,39.4693182 60.3456693,43.2910354 53.5346457,43.2910354 C47.4047244,43.4275253 43.9992126,41.7896465 41.0023622,39.0598485 Z" id="Path"></path>
                        <path d="M74.5125984,32.0988636 C74.6488189,32.0988636 74.7850394,32.0988636 74.7850394,32.5083333 C74.9212598,34.0097222 75.6023622,36.0570707 76.692126,37.9679293 C78.0543307,40.1517677 80.5062992,41.2436869 82.8220472,41.2436869 C85.1377953,41.2436869 88.815748,39.742298 88.815748,35.9205808 C88.815748,31.9623737 87.9984252,30.7339646 81.7322835,28.4136364 C80.2338583,27.8676768 77.2370079,26.3662879 74.7850394,24.1824495 C73.1503937,22.6810606 72.3330709,20.0877525 72.3330709,17.3579545 C72.3330709,14.3551768 73.0141732,12.4443182 75.8748031,10.2604798 C78.0543307,8.62260101 79.8251969,7.94015152 82.8220472,7.94015152 C86.3637795,7.94015152 88.2708661,8.48611111 89.2244094,8.89558081 C89.7692913,9.03207071 90.0417323,9.03207071 90.3141732,8.62260101 L90.9952756,7.94015152 C91.1314961,7.80366162 91.403937,7.66717172 91.676378,7.66717172 C91.9488189,7.66717172 92.0850394,8.21313131 92.2212598,8.48611111 L93.0385827,16.6755051 C93.0385827,16.8119949 92.9023622,16.9484848 92.7661417,16.9484848 L91.676378,17.2214646 C91.403937,17.3579545 91.1314961,17.2214646 90.9952756,16.9484848 C90.4503937,15.5835859 89.6330709,13.6727273 87.9984252,11.8983586 C86.7724409,10.5334596 85.4102362,9.8510101 83.2307087,9.8510101 C79.5527559,9.8510101 78.1905512,12.9902778 78.1905512,14.2186869 C78.1905512,15.9930556 78.1905512,17.4944444 79.4165354,18.7228535 C80.6425197,20.0877525 83.3669291,21.1796717 85.8188976,21.8621212 C88.1346457,22.5445707 90.0417323,23.7729798 91.9488189,25.5473485 C93.8559055,27.1852273 94.5370079,29.3690657 94.5370079,32.7813131 C94.5370079,38.6503788 90.3141732,43.4275253 84.0480315,43.4275253 C79.6889764,43.4275253 77.5094488,42.7450758 75.4661417,41.3801768 C74.9212598,40.9707071 74.6488189,40.8342172 74.376378,40.8342172 C74.103937,40.8342172 73.8314961,41.107197 73.5590551,41.6531566 C73.2866142,42.1991162 73.0141732,42.1991162 72.7417323,42.1991162 C72.1968504,42.1991162 72.0606299,41.9261364 72.0606299,41.3801768 L72.8779528,32.2353535 C72.8779528,31.9623737 73.0141732,31.9623737 73.2866142,31.9623737 L74.5125984,32.0988636 Z" id="Path"></path>
                        <path d="M102.982677,20.6337121 C102.982677,19.405303 102.846457,12.5808081 102.710236,11.7618687 C102.574016,10.6699495 101.892913,10.3969697 101.075591,10.3969697 L98.623622,10.3969697 C98.3511811,10.3969697 98.2149606,10.3969697 98.2149606,10.1239899 L98.2149606,8.75909091 C98.3511811,8.48611111 98.4874016,8.48611111 98.7598425,8.48611111 C99.4409449,8.48611111 101.484252,8.62260101 106.388189,8.62260101 C107.614173,8.62260101 112.38189,8.48611111 113.471654,8.48611111 C120.010236,8.48611111 125.186614,9.03207071 129.81811,12.8537879 C132.951181,15.447096 135.266929,19.5417929 135.266929,25.1378788 C135.266929,30.7339646 133.632283,34.282702 130.499213,37.8314394 C125.867717,42.8815657 117.558268,42.8815657 114.561417,42.8815657 C113.744094,42.8815657 108.159055,42.7450758 105.434646,42.7450758 C101.211811,42.7450758 99.3047244,42.8815657 98.623622,42.8815657 C98.3511811,42.8815657 98.3511811,42.7450758 98.3511811,42.472096 L98.3511811,41.2436869 C98.3511811,41.107197 98.4874016,40.9707071 98.7598425,40.9707071 L101.211811,40.9707071 C102.165354,40.9707071 102.710236,40.5612374 102.710236,39.8787879 C102.846457,38.9233586 102.982677,28.0041667 102.982677,24.3189394 L102.982677,20.6337121 L102.982677,20.6337121 Z M110.202362,25.2743687 C110.202362,25.9568182 110.202362,34.1462121 110.338583,37.1489899 C110.338583,38.1044192 110.474803,38.9233586 111.155906,39.742298 C111.700787,40.5612374 113.335433,40.8342172 114.970079,40.8342172 C117.694488,40.8342172 121.508661,39.4693182 123.96063,36.0570707 C125.867717,33.4637626 127.366142,29.5055556 127.366142,25.0013889 C127.366142,21.0431818 125.731496,16.9484848 123.415748,14.4916667 C120.827559,11.6253788 116.604724,10.1239899 113.880315,10.1239899 C112.51811,10.1239899 111.837008,10.1239899 111.155906,10.5334596 C110.474803,11.0794192 110.338583,11.7618687 110.338583,12.717298 C110.338583,14.7646465 110.338583,21.0431818 110.338583,21.8621212 L110.338583,25.2743687 L110.202362,25.2743687 Z" id="Shape"></path>
                        <path d="M172.318898,37.0125 C172.182677,34.0097222 171.774016,6.16578283 171.774016,6.16578283 C171.774016,4.25492424 171.501575,3.29949495 169.322047,3.02651515 C160.740157,1.79810606 153.792913,0.842676768 149.84252,0.296717172 C147.799213,0.0237373737 144.393701,3.57247475 144.12126,5.34684343 C144.12126,5.34684343 143.712598,16.5390152 143.440157,20.3607323 C143.303937,24.1824495 143.848819,25.4108586 144.938583,26.6392677 C146.028346,27.7311869 162.374803,44.1099747 164.009449,45.7478535 C165.507874,47.3857323 166.870079,46.9762626 166.870079,44.5194444 L166.870079,41.7896465 L168.640945,40.0152778 L167.551181,38.7868687 L164.41811,41.9261364 L146.98189,24.3189394 C146.98189,24.3189394 147.799213,21.3161616 151.204724,20.3607323 C151.204724,20.3607323 168.368504,37.5584596 170.00315,39.1963384 C171.365354,41.107197 172.455118,40.0152778 172.318898,37.0125 Z M168.640945,28.4136364 L169.049606,30.5974747 L167.006299,29.5055556 L164.962992,30.5974747 L165.371654,28.4136364 L163.737008,26.7757576 L165.916535,26.5027778 L166.870079,24.4554293 L167.823622,26.5027778 L170.00315,26.7757576 L168.640945,28.4136364 Z" id="Shape"></path>
                    </g>
                </g>
            </g>
        </g>
    </g>
</svg>